<svg id="_x33_0" enable-background="new 0 0 64 64" height="512" viewBox="0 0 64 64" width="512" xmlns="http://www.w3.org/2000/svg"><g><g><g><path d="m32 58c-5.514 0-10-4.486-10-10s4.486-10 10-10 10 4.486 10 10-4.486 10-10 10z" fill="#f0bc5e"/></g></g><g><g><path d="m59 21h-8v-10h-3l7-10 7 10h-3z" fill="#f0bc5e"/></g></g><g><g><path d="m42 33-7-10h3v-10h8v10h3z" fill="#f0bc5e"/></g></g><g><path d="m31 52.816v2.184h2v-2h2v-3c0-1.654-1.346-3-3-3-.552 0-1-.448-1-1v-1h1c.552 0 1 .448 1 1v1h2v-1c0-1.302-.839-2.402-2-2.816v-2.184h-2v2h-2v3c0 1.654 1.346 3 3 3 .552 0 1 .448 1 1v1h-1c-.552 0-1-.448-1-1v-1h-2v1c0 1.302.839 2.402 2 2.816z"/><path d="m61 33h-28v-17c0-2.855-7.497-3-9-3-.5 0-1.669.019-3 .145v-9.145c0-2.855-7.497-3-9-3s-9 .145-9 3v29c-1.103 0-2 .897-2 2v26c0 1.103.897 2 2 2h58c1.103 0 2-.897 2-2v-26c0-1.103-.897-2-2-2zm-44 0v-2.96c2.332.891 5.997.96 7 .96s4.668-.069 7-.96v2.96zm-12-8.96c2.332.891 5.997.96 7 .96 1.029 0 2.045-.05 3-.143v3.992c-.944.099-1.965.151-3 .151-4.085 0-6.53-.755-7-1.182zm0-6c2.332.891 5.997.96 7 .96 1.029 0 2.045-.05 3-.143v3.992c-.944.099-1.965.151-3 .151-4.085 0-6.53-.755-7-1.182zm26 3.778c-.47.427-2.915 1.182-7 1.182s-6.53-.755-7-1.182v-3.778c2.332.891 5.997.96 7 .96s4.668-.069 7-.96zm0 6c-.47.427-2.915 1.182-7 1.182s-6.53-.755-7-1.182v-3.778c2.332.891 5.997.96 7 .96s4.668-.069 7-.96zm-.272-11.818c-.862.43-3.186 1-6.728 1s-5.865-.57-6.728-1c.862-.43 3.186-1 6.728-1s5.865.57 6.728 1zm-15.728 0v.848c-.944.1-1.965.152-3 .152-4.085 0-6.53-.755-7-1.182v-3.778c2.332.891 5.997.96 7 .96s4.668-.069 7-.96v1.379c-2.087.389-4 1.139-4 2.581zm-10-9.96c2.332.891 5.997.96 7 .96s4.668-.069 7-.96v3.778c-.47.427-2.915 1.182-7 1.182s-6.53-.755-7-1.182zm7-3.04c3.542 0 5.865.57 6.728 1-.863.43-3.186 1-6.728 1s-5.865-.57-6.728-1c.863-.43 3.186-1 6.728-1zm-7 27.04c2.332.891 5.997.96 7 .96 1.029 0 2.045-.05 3-.143v2.143h-10zm-2 30.96v-26h58l.002 26z"/><path d="m5 59h54v-22h-54zm2-5.899c1.956.399 3.5 1.943 3.899 3.899h-3.899zm5.92-14.101h38.16c.441 3.059 2.861 5.479 5.92 5.92v6.16c-3.059.441-5.479 2.861-5.92 5.92h-38.16c-.441-3.059-2.861-5.479-5.92-5.92v-6.16c3.059-.441 5.479-2.861 5.92-5.92zm40.181 18c.399-1.956 1.943-3.5 3.899-3.899v3.899zm3.899-14.101c-1.956-.399-3.5-1.943-3.899-3.899h3.899zm-46.101-3.899c-.399 1.956-1.943 3.5-3.899 3.899v-3.899z"/></g></g></svg>