<?xml version="1.0" encoding="iso-8859-1"?>
<!-- Generator: Adobe Illustrator 19.0.0, SVG Export Plug-In . SVG Version: 6.00 Build 0)  -->
<svg version="1.1" id="Layer_1" xmlns="http://www.w3.org/2000/svg" xmlns:xlink="http://www.w3.org/1999/xlink" x="0px" y="0px"
	 viewBox="0 0 512 512" style="enable-background:new 0 0 512 512;" xml:space="preserve">
<path d="M347.386,207.28l-25.598-25.598c-3.328-3.328-8.789-3.328-12.117,0l-87.802,87.887l-28.073-28.158
	c-3.328-3.328-8.789-3.328-12.117,0l-25.598,25.598c-3.328,3.328-3.328,8.789,0,12.117l59.729,59.729
	c1.707,1.621,3.84,2.474,6.058,2.474s4.352-0.853,6.058-2.474l119.459-119.459C350.714,216.077,350.714,210.616,347.386,207.28z
	 M221.869,320.766l-47.698-47.698l13.567-13.567l28.073,28.158c3.328,3.328,8.789,3.328,12.117,0l87.802-87.887l13.567,13.567
	L221.869,320.766z"/>
<path d="M471.879,256.011l38.141-45.736c2.133-2.56,2.56-6.058,1.195-9.045c-1.451-3.072-4.437-4.949-7.765-4.949H391.415
	l-7.509-52.391c-0.597-4.181-4.181-7.338-8.447-7.338h-65.19c-10.069-8.362-48.807-40.701-48.807-40.701
	c-3.157-2.645-7.765-2.645-10.922,0l-48.807,40.701h-65.19c-4.266,0-7.85,3.157-8.447,7.338l-7.509,52.391H8.55
	c-3.328,0-6.314,1.877-7.765,4.949c-1.365,2.986-0.939,6.485,1.195,9.045l38.141,45.736L1.98,301.746
	c-2.133,2.56-2.56,6.058-1.195,9.045c1.451,3.072,4.437,4.949,7.765,4.949h112.035c2.304,15.871,7.509,52.391,7.509,52.391
	c0.597,4.181,4.181,7.338,8.447,7.338h65.19l48.807,40.701c1.621,1.28,3.498,1.963,5.461,1.963c1.963,0,3.84-0.683,5.461-1.963
	l48.807-40.701c13.311,0,65.19,0,65.19,0c4.266,0,7.85-3.157,8.447-7.338c0,0,5.205-36.52,7.509-52.391H503.45
	c3.328,0,6.314-1.877,7.765-4.949c1.365-2.986,0.939-6.485-1.195-9.045L471.879,256.011z M26.81,298.674l30.974-37.203
	c2.645-3.157,2.645-7.765,0-10.922L26.81,213.347h83.024L78.774,250.55c-2.645,3.157-2.645,7.765,0,10.922l31.059,37.203H26.81z
	 M377.421,301.746c-0.427,0.512-0.768,1.024-1.024,1.621c-0.597,1.195-0.683,1.28-8.362,55.036c-62.886,0-62.886,0-64.678,0.939
	c-0.597,0.256-1.109,0.597-1.621,1.024L256,398.508l-45.736-38.141c-1.536-1.28-3.498-1.963-5.461-1.963h-60.839
	c-7.679-53.756-7.765-53.842-8.362-55.036c-0.256-0.597-0.597-1.109-1.024-1.621l-38.141-45.736l38.141-45.736
	c1.024-1.195,1.621-2.645,1.877-4.266l7.509-52.391h60.839c1.963,0,3.925-0.683,5.461-1.963L256,113.513
	c46.504,38.739,46.504,38.739,47.357,39.165c1.195,0.597,2.474,0.939,3.84,0.939h60.839l7.509,52.391
	c0.256,1.621,0.853,3.072,1.877,4.266l38.141,45.736L377.421,301.746z M402.166,298.674l31.059-37.203
	c2.645-3.157,2.645-7.765,0-10.922l-30.974-37.203h82.938l-30.974,37.203c-2.645,3.157-2.645,7.765,0,10.922l30.974,37.203H402.166z
	"/>
<g>
	<path style="fill:#FFC107;" d="M78.774,261.472l31.059,37.203H26.81l30.974-37.203c2.645-3.157,2.645-7.765,0-10.922L26.81,213.347
		h83.024L78.774,250.55C76.129,253.698,76.129,258.306,78.774,261.472z"/>
	<path style="fill:#FFC107;" d="M454.216,261.472l30.974,37.203h-83.024l31.059-37.203c2.645-3.157,2.645-7.765,0-10.922
		l-30.974-37.203h82.938l-30.974,37.203C451.571,253.698,451.571,258.306,454.216,261.472z"/>
</g>
<path style="fill:#D50000;" d="M377.421,210.275c-1.024-1.195-1.621-2.645-1.877-4.266l-7.509-52.391h-60.839
	c-1.365,0-2.645-0.341-3.84-0.939c-0.853-0.427-0.853-0.427-47.357-39.165l-45.736,38.141c-1.536,1.28-3.498,1.963-5.461,1.963
	h-60.839l-7.509,52.391c-0.256,1.621-0.853,3.072-1.877,4.266l-38.141,45.736l38.141,45.736c0.427,0.512,0.768,1.024,1.024,1.621
	c0.597,1.195,0.683,1.28,8.362,55.036h60.839c1.963,0,3.925,0.683,5.461,1.963L256,398.508l45.736-38.141
	c0.512-0.427,1.024-0.768,1.621-1.024c1.792-0.939,1.792-0.939,64.678-0.939c7.68-53.756,7.765-53.842,8.362-55.036
	c0.256-0.597,0.597-1.109,1.024-1.621l38.141-45.736L377.421,210.275z M347.386,219.396L227.927,338.855
	c-1.707,1.621-3.84,2.474-6.058,2.474s-4.352-0.853-6.058-2.474l-59.729-59.729c-3.328-3.328-3.328-8.789,0-12.117l25.598-25.598
	c3.328-3.328,8.789-3.328,12.117,0l28.073,28.158l87.802-87.887c3.328-3.328,8.789-3.328,12.117,0l25.598,25.598
	C350.714,210.616,350.714,216.077,347.386,219.396z"/>
<path style="fill:#22BE34;" d="M329.296,213.347L221.869,320.774l-47.698-47.698l13.567-13.567l28.073,28.158
	c3.328,3.328,8.789,3.328,12.117,0l87.802-87.887L329.296,213.347z"/>
<path style="fill:#B71C1C;" d="M303.357,342.277c-0.597,0.256-1.109,0.597-1.621,1.024L256,381.442l-45.736-38.141
	c-1.536-1.28-3.498-1.963-5.461-1.963h-63.279c0.717,4.992,1.519,10.623,2.44,17.066h60.839c1.963,0,3.925,0.683,5.461,1.963
	L256,398.508l45.736-38.141c0.512-0.427,1.024-0.768,1.621-1.024c1.792-0.939,1.792-0.939,64.678-0.939
	c0.922-6.442,1.724-12.074,2.44-17.066C311.378,341.338,305.106,341.355,303.357,342.277z"/>
<g>
	<polygon style="fill:#F9A825;" points="41.017,281.609 26.81,298.674 109.834,298.674 95.584,281.609 	"/>
	<polygon style="fill:#F9A825;" points="416.416,281.609 402.166,298.674 485.19,298.674 470.983,281.609 	"/>
</g>
</svg>
