<?xml version="1.0" standalone="no"?>
<!DOCTYPE svg PUBLIC "-//W3C//DTD SVG 20010904//EN"
 "http://www.w3.org/TR/2001/REC-SVG-20010904/DTD/svg10.dtd">
<svg version="1.0" xmlns="http://www.w3.org/2000/svg"
 width="1350.000000pt" height="1350.000000pt" viewBox="0 0 1350.000000 1350.000000"
 preserveAspectRatio="xMidYMid meet">
<metadata>
Created by potrace 1.10, written by Peter Selinger 2001-2011
</metadata>
<g transform="translate(0.000000,1350.000000) scale(0.100000,-0.100000)"
fill="#000000" stroke="none">
<path d="M7421 10667 c-38 -19 -53 -66 -34 -104 8 -17 22 -34 31 -38 8 -3 178
-6 376 -6 l361 0 23 26 c37 44 22 106 -31 125 -45 15 -695 13 -726 -3z"/>
<path d="M8749 10669 c-50 -19 -63 -86 -24 -124 l24 -25 366 0 c352 0 366 1
385 20 30 30 30 83 -1 115 -19 19 -34 20 -372 22 -211 1 -362 -2 -378 -8z"/>
<path d="M10075 10668 c-44 -24 -56 -63 -34 -112 14 -30 23 -34 113 -47 174
-24 279 -113 346 -292 17 -46 29 -62 52 -71 40 -17 74 -9 99 23 28 36 21 79
-30 186 -84 173 -251 294 -432 315 -100 12 -89 12 -114 -2z"/>
<path d="M6721 10650 c-160 -58 -294 -188 -350 -342 -26 -68 -45 -181 -37
-213 10 -39 42 -65 79 -65 57 0 77 28 87 119 18 162 117 284 281 346 52 20 73
34 84 56 19 36 11 73 -22 99 -32 25 -53 25 -122 0z"/>
<path d="M10565 9624 c-16 -8 -33 -21 -37 -27 -4 -7 -8 -175 -8 -375 l0 -363
26 -26 c21 -21 32 -24 62 -20 69 12 67 0 70 385 3 358 -1 415 -36 425 -9 2
-24 7 -32 11 -8 3 -28 -1 -45 -10z"/>
<path d="M6394 9522 c-12 -2 -30 -12 -40 -24 -17 -17 -19 -41 -22 -177 -1 -86
-5 -166 -7 -178 l-5 -23 -1523 -2 -1522 -3 -64 -22 c-81 -29 -155 -72 -214
-123 -62 -55 -139 -173 -168 -257 l-24 -68 0 -1775 0 -1775 28 -69 c41 -102
75 -154 142 -221 69 -69 127 -106 228 -143 l72 -27 1207 -3 1208 -3 14 -22 c8
-12 27 -67 41 -122 15 -55 33 -122 40 -150 8 -27 28 -104 45 -170 18 -66 43
-160 56 -210 14 -49 42 -160 64 -245 47 -180 62 -220 106 -275 62 -79 157
-103 259 -68 43 15 85 52 316 280 146 145 270 263 276 263 5 0 246 -235 534
-523 409 -408 535 -528 573 -545 110 -52 237 -53 340 -2 50 24 100 68 277 247
135 136 226 235 240 263 64 126 50 292 -35 405 -17 22 -254 264 -528 539 -274
274 -498 505 -498 514 0 8 114 131 254 271 149 151 262 273 274 297 28 55 37
132 22 179 -7 21 -28 55 -48 77 -60 67 -72 71 -517 187 -60 16 -155 41 -210
56 -55 15 -140 38 -189 51 -49 13 -93 27 -97 31 -5 5 -10 611 -11 1348 l-3
1340 -23 59 c-70 185 -175 299 -341 369 -78 34 -163 47 -304 47 -87 0 -109 3
-113 15 -4 8 -7 87 -8 174 -1 152 -2 161 -24 184 -26 27 -45 34 -78 29z m315
-573 c86 -5 122 -13 165 -32 65 -30 157 -113 193 -174 59 -101 56 -33 59
-1425 2 -1050 0 -1280 -11 -1295 -13 -17 -17 -17 -107 6 -93 23 -273 72 -358
96 -55 15 -102 28 -390 105 -124 33 -247 67 -275 74 -460 129 -515 132 -612
43 -32 -29 -47 -54 -59 -94 -18 -63 -15 -102 22 -238 13 -49 47 -175 74 -280
43 -161 119 -445 185 -690 61 -225 64 -240 39 -249 -9 -3 -527 -6 -1153 -6
-1238 0 -1177 -3 -1291 55 -109 55 -196 174 -219 299 -15 80 -15 3379 -1 3457
22 116 104 236 202 293 53 31 91 44 163 56 61 10 3220 9 3374 -1z m-1019
-2741 c132 -35 250 -66 365 -98 44 -12 94 -26 110 -30 17 -4 98 -26 180 -48
170 -46 327 -88 625 -167 125 -33 296 -79 485 -130 55 -15 147 -40 205 -55
104 -28 218 -59 315 -86 28 -8 73 -19 100 -25 94 -21 132 -51 120 -96 -4 -18
-109 -131 -300 -323 -183 -184 -296 -305 -300 -321 -4 -16 -1 -38 8 -55 9 -16
258 -272 555 -569 362 -362 546 -554 561 -584 31 -61 31 -137 0 -190 -24 -40
-360 -386 -409 -421 -14 -9 -49 -23 -77 -30 -47 -12 -59 -12 -110 4 -54 17
-75 37 -607 568 -303 302 -564 556 -579 564 -16 9 -37 12 -50 8 -12 -3 -155
-138 -317 -299 -162 -161 -304 -297 -316 -303 -28 -14 -65 5 -83 43 -8 16 -27
77 -42 135 -15 58 -71 267 -124 465 -53 198 -128 479 -167 625 -39 146 -84
315 -100 375 -67 248 -90 332 -103 380 -8 28 -23 84 -34 125 -19 73 -40 152
-82 308 -25 91 -48 192 -49 210 0 7 11 24 25 38 28 28 16 29 195 -18z"/>
<path d="M8446 8959 l-26 -31 0 -298 c0 -164 -4 -301 -9 -304 -4 -3 -57 42
-116 99 -94 92 -112 105 -142 105 -24 0 -41 -8 -58 -26 -52 -56 -38 -78 185
-299 180 -180 181 -180 226 -180 l44 0 195 196 c173 173 195 199 195 227 0 42
-38 82 -78 82 -35 0 -83 -36 -174 -132 -101 -108 -98 -115 -98 236 l0 294 -26
31 c-19 23 -34 31 -59 31 -25 0 -40 -8 -59 -31z"/>
<path d="M10545 8285 l-25 -24 0 -364 0 -364 23 -21 c29 -27 77 -28 108 -3
l24 19 3 349 c2 191 0 358 -3 371 -15 61 -86 82 -130 37z"/>
<path d="M10542 6955 c-11 -14 -23 -50 -27 -82 -10 -84 -39 -158 -85 -219 -49
-65 -108 -107 -197 -140 -103 -38 -128 -83 -79 -141 20 -24 30 -27 71 -25 63
2 193 66 262 127 63 55 132 158 163 243 31 85 34 210 6 241 -28 31 -88 29
-114 -4z"/>
<path d="M7512 6467 c-32 -34 -30 -89 4 -116 26 -20 38 -21 379 -21 341 0 353
1 379 21 34 27 37 88 4 119 -21 19 -33 20 -383 20 l-362 0 -21 -23z"/>
<path d="M8835 6465 c-40 -39 -32 -96 16 -120 23 -12 90 -15 377 -15 l349 0
27 25 c34 32 35 77 1 110 l-24 25 -361 0 -361 0 -24 -25z"/>
<path d="M5231 4129 c-35 -14 -1228 -1207 -1252 -1252 -17 -33 -18 -40 -5 -65
19 -37 57 -56 92 -48 31 8 1233 1200 1260 1248 20 39 17 71 -8 95 -30 27 -57
34 -87 22z"/>
<path d="M4475 4070 c-11 -4 -100 -89 -198 -188 -167 -167 -179 -182 -179
-216 0 -60 46 -95 100 -75 15 5 107 90 205 187 172 172 177 178 177 218 0 59
-53 97 -105 74z"/>
</g>
</svg>
