<?xml version="1.0" standalone="no"?>
<!DOCTYPE svg PUBLIC "-//W3C//DTD SVG 20010904//EN"
 "http://www.w3.org/TR/2001/REC-SVG-20010904/DTD/svg10.dtd">
<svg version="1.0" xmlns="http://www.w3.org/2000/svg"
 width="256.000000pt" height="256.000000pt" viewBox="0 0 256.000000 256.000000"
 preserveAspectRatio="xMidYMid meet">

<g transform="translate(0.000000,256.000000) scale(0.100000,-0.100000)"
fill="#000000" stroke="none">
<path d="M1301 1278 l-1 -1268 43 0 c51 0 187 23 254 43 149 45 267 112 370
211 86 81 141 157 188 260 53 116 54 128 4 71 -167 -189 -338 -294 -536 -329
l-33 -6 0 310 0 310 311 0 312 0 -7 38 c-8 51 -40 124 -72 162 l-26 30 -259 0
-259 0 0 247 0 246 23 -19 c164 -144 217 -192 301 -273 54 -53 95 -89 90 -81
-5 9 -49 76 -98 150 -310 471 -460 754 -585 1110 -20 55 -20 54 -20 -1212z"/>
<path d="M1237 2495 c-17 -60 -91 -224 -169 -374 -144 -277 -319 -557 -488
-781 -179 -236 -204 -276 -235 -370 -28 -82 -24 -202 9 -315 101 -336 370
-552 784 -630 46 -9 88 -15 93 -13 5 2 -46 39 -112 83 -294 194 -477 413 -525
625 -10 44 -14 87 -10 114 l7 44 264 4 263 3 44 30 c26 18 52 48 66 75 l22 46
-2 744 c-2 416 -7 732 -11 715z m-212 -1332 c-11 -45 -42 -54 -174 -51 l-122
3 148 214 148 213 3 -178 c1 -99 0 -189 -3 -201z"/>
</g>
</svg>
