<svg xmlns="http://www.w3.org/2000/svg" width="283.654" height="125.52" viewBox="0 0 283.654 125.52">
  <g id="GatheringCenter" transform="translate(-392.631 -192.675)">
    <path id="path144" d="M403.636,317.516a16.029,16.029,0,0,1-8.15-5.943c-2.89-4.355-2.855-3.938-2.855-33.587,0-23.118.091-27.013.681-29a15.18,15.18,0,0,1,10.505-10.505c1.963-.583,5.492-.681,24.563-.681h22.271V207.287h45.986v-7.306c0-4.018.054-7.306.12-7.306s9.779,1.934,21.584,4.3,21.518,4.3,21.584,4.3.12,3.965.12,8.81-.054,8.81-.12,8.81-9.779,1.934-21.584,4.3-21.518,4.3-21.584,4.3-.12-3.675-.12-8.166v-8.166H455.809V237.8h22.056c19.039,0,22.375.095,24.39.693a15.54,15.54,0,0,1,10.514,10.512,35.415,35.415,0,0,1,.626,7.383l.005,5.05h22.778V256.36c0-8.4,2-12.821,7.348-16.215,3.51-2.229,4.71-2.343,24.534-2.343h18.4v-28.8h45.557V193.9l1.182.233c.65.128,10.61,2.106,22.134,4.4l20.952,4.163v17.863L674.03,221c-9.088,1.83-41.509,8.2-41.733,8.2a60.465,60.465,0,0,1-.278-8.166v-8.166h-40.4V237.8h25.924c28.783,0,28.461-.028,32.805,2.855a16.8,16.8,0,0,1,3.779,3.743c2.818,4.091,2.808,3.975,2.808,33.586,0,21.868-.111,27.065-.621,28.979a15.676,15.676,0,0,1-10.574,10.574c-1.966.523-9.7.621-49.179.621-51.875,0-49.531.122-53.786-2.808-4.6-3.167-6.6-7.807-6.6-15.31v-4.65H513.4l-.005,4.62a34.084,34.084,0,0,1-.626,6.953,15.676,15.676,0,0,1-10.574,10.574c-3.339.889-95.316.867-98.558-.023ZM507.3,305.8c.735-2.453.719-53.216-.018-55.7a11.465,11.465,0,0,0-6.186-6.186c-1.347-.4-12.876-.523-48.35-.516-45.958.009-46.607.021-48.515.886a8.7,8.7,0,0,0-5,4.906c-.986,2.091-1.013,2.453-1,13.538.012,10.639.058,11.3.692,10.1a11.645,11.645,0,0,1,4.659-4.659l1.719-.928,46.631-.12c42.485-.109,46.8-.056,48.5.59a10.844,10.844,0,0,1,5.928,5.543c.988,2.122,1,2.355,1,16.764-.005,13.775-.055,14.723-.881,16.547a15.566,15.566,0,0,1-1.817,3.034c-.518.6-.251.378.592-.5a9.988,9.988,0,0,0,2.041-3.3Zm28.873-27.381V265.307H513.4v26.217h22.778Zm6.988-6.02a11.569,11.569,0,0,1,4.616-4.353c1.437-.765,3.589-.807,48.135-.921,42.485-.109,46.8-.056,48.5.59a10.844,10.844,0,0,1,5.928,5.543l1,2.152,0-11.769c0-8.033-.163-12.331-.521-13.538a11.465,11.465,0,0,0-6.186-6.186c-1.347-.4-12.876-.523-48.35-.516-45.958.009-46.607.021-48.515.886a8.7,8.7,0,0,0-5,4.906c-.993,2.107-1.013,2.39-.981,14.4.018,6.737.18,11.764.36,11.172a16.949,16.949,0,0,1,1-2.364Z" fill="#2ab3bf"/>
    <path id="path142" d="M403.922,317.509a14.8,14.8,0,0,1-9.734-8.364l-1.342-2.794V249.621l1.338-2.794a14.757,14.757,0,0,1,7.473-7.473l2.794-1.338,23.1-.125,23.1-.125V207.288h45.986V192.807l21.7,4.335,21.7,4.335v17.208l-21.7,4.335-21.7,4.335v-16.2H455.809v26.611l22.886.125,22.886.125,2.794,1.342c6.565,3.154,9.025,7.851,9.025,17.229v4.852H536.08l.167-5.909c.157-5.538.25-6.085,1.494-8.7a14.684,14.684,0,0,1,7.462-7.473L548,238.017l19.233-.128,19.233-.128V209.007h45.557V193.9l1.182.233c.65.128,10.61,2.106,22.134,4.4l20.952,4.163V220.55L674.03,221c-9.088,1.83-41.509,8.2-41.733,8.2a60.465,60.465,0,0,1-.278-8.166v-8.166h-40.4v24.9l26.754.123,26.754.123,2.794,1.342a14.641,14.641,0,0,1,8.386,9.923c.948,3.639.948,53.77,0,57.41a14.9,14.9,0,0,1-10.841,10.84c-2.1.547-9.18.639-48.9.639s-46.806-.092-48.9-.639a14.576,14.576,0,0,1-9.908-8.386c-1.223-2.573-1.341-3.226-1.5-8.273l-.173-5.48H513.4v4.422c0,8.126-2.106,12.685-7.414,16.055-3.7,2.349-2.652,2.3-53.168,2.273-38.7-.023-47.031-.131-48.9-.634Zm97.172-5.371c2.792-1.044,5.576-3.84,6.253-6.278.648-2.335.634-53.462-.016-55.809-.631-2.281-3.9-5.549-6.181-6.181-1.208-.334-15.534-.477-48.189-.478-51.632,0-48.7-.166-51.834,2.889-2.852,2.784-2.831,2.573-3.162,31.723l-.3,26.233.943,2.132a10.138,10.138,0,0,0,5.41,5.621l2.149,1.016,46.293,0c45.526,0,46.332-.01,48.633-.871Zm144.294-.111a11.973,11.973,0,0,0,5.167-5.245c.733-1.605.786-3.483.792-28.366.005-18.186-.144-27.192-.469-28.365-.631-2.281-3.9-5.549-6.181-6.181-1.208-.334-15.528-.477-48.166-.478-51.671,0-48.882-.159-51.883,2.915-2.945,3.017-2.885,2.344-2.874,32.057.009,24.976.06,26.811.8,28.419A10.56,10.56,0,0,0,548,312l2.149,1.012,46.846-.106c44.091-.1,46.937-.152,48.4-.878ZM536.177,278.416V265.308H513.4v26.217h22.778Z" fill="#d91a38"/>
    <path id="path140" d="M403.922,317.509a14.8,14.8,0,0,1-9.734-8.364l-1.342-2.794V249.621l1.338-2.794a14.757,14.757,0,0,1,7.473-7.473l2.794-1.338,23.1-.125,23.1-.125V207.288h45.986V192.807l21.7,4.335,21.7,4.335v17.208l-21.7,4.335-21.7,4.335v-16.2H455.809v26.611l22.886.125,22.886.125,2.794,1.342c6.565,3.154,9.025,7.851,9.025,17.229v4.852H536.08l.167-5.909c.157-5.538.25-6.085,1.494-8.7a14.684,14.684,0,0,1,7.462-7.473L548,238.017l19.233-.128,19.233-.128V209.007h45.557v3.868h-40.4v24.9l26.754.123,26.754.123,2.794,1.342a14.641,14.641,0,0,1,8.386,9.923c.948,3.639.948,53.77,0,57.409a14.9,14.9,0,0,1-10.841,10.841c-2.1.547-9.18.639-48.9.639s-46.806-.092-48.9-.639a14.576,14.576,0,0,1-9.908-8.386c-1.223-2.573-1.341-3.226-1.5-8.273l-.173-5.48H513.4v4.422c0,8.126-2.106,12.685-7.414,16.055-3.7,2.349-2.652,2.3-53.168,2.273-38.7-.023-47.031-.131-48.9-.634Zm97.172-5.371c2.792-1.044,5.576-3.84,6.253-6.278.648-2.335.634-53.462-.016-55.809-.631-2.281-3.9-5.549-6.181-6.181-1.208-.334-15.534-.477-48.189-.478-51.632,0-48.7-.166-51.834,2.889-2.852,2.784-2.831,2.573-3.162,31.723l-.3,26.233.943,2.132a10.138,10.138,0,0,0,5.41,5.621l2.149,1.016,46.293,0c45.526,0,46.332-.01,48.633-.871Zm144.294-.111a11.973,11.973,0,0,0,5.167-5.245c.733-1.605.786-3.483.792-28.366.005-18.186-.144-27.192-.469-28.365-.631-2.281-3.9-5.549-6.181-6.181-1.208-.334-15.528-.477-48.166-.478-51.671,0-48.882-.159-51.883,2.915-2.945,3.017-2.885,2.344-2.874,32.057.009,24.976.06,26.811.8,28.419A10.56,10.56,0,0,0,548,312l2.149,1.012,46.846-.106c44.091-.1,46.937-.152,48.4-.878ZM536.177,278.416V265.308H513.4v26.217h22.778Z" fill="#585858"/>
    <path id="path138" d="M496.638,210.081V192.807l21.7,4.335,21.7,4.335v17.208l-21.7,4.335-21.7,4.335Z" fill="#00af4f"/>
  </g>
</svg>
