<svg xmlns="http://www.w3.org/2000/svg" width="247.982" height="114.203" viewBox="0 0 247.982 114.203">
  <g id="Terminal" transform="translate(-390.057 -199.018)">
    <path id="path123" d="M517.916,312.763a20.4,20.4,0,0,1-10.6-8.623c-.908-1.4-1.651-2.314-1.651-2.041,0,.373-14.382.5-57.805.5H390.057V278.954l57.913.109,57.913.109,1.544-2.364a22.826,22.826,0,0,1,8.463-7.659c2.125-1,3.01-1.152,6.54-1.152s4.415.156,6.54,1.152a22.826,22.826,0,0,1,8.463,7.659l1.544,2.364,26.754-.111,26.754-.111V266.923h6.876V247.8c0-18.839-.013-19.125-.86-19.125-.778,0-.86-.287-.86-3.008v-3.008h-6.017V205.035h6.017v-6.017h13.323v6.017h6.017v17.621h-6.017v3.008c0,2.722-.082,3.008-.86,3.008-.847,0-.86.287-.86,19.125v19.125h5.587v12.034H638.04v23.638H614.831v9.025H592.483v-9.025H565.836c-19.862,0-26.646-.126-26.646-.5,0-.273-.75.646-1.666,2.041-3.905,5.949-8.514,8.839-14.451,9.063a17.5,17.5,0,0,1-5.157-.439Zm9.525-4.568c2.009-.889,4.013-2.416,4.013-3.058,0-.535-8.576-10.923-9.018-10.923s-9.033,10.409-9.033,10.935c0,.441,1.758,1.974,3.008,2.624a12.336,12.336,0,0,0,11.029.422Zm-12.11-12.039,4.561-5.579-4.608-5.648c-5.229-6.41-5.058-6.375-6.611-1.348a21.38,21.38,0,0,0-.706,11.158c.62,2.928,2.127,7,2.592,7,.117,0,2.264-2.511,4.773-5.579Zm19.932,3.968a25.671,25.671,0,0,0,2.072-11.02c-.274-2.9-1.663-7.784-2.561-9.013-.527-.721-.966-.309-5.179,4.85l-4.6,5.637,4.551,5.578c2.5,3.068,4.63,5.578,4.726,5.578a6.307,6.307,0,0,0,.994-1.612Zm-8.131-18.448c3.482-4.275,4.347-5.593,4.017-6.124-1.321-2.127-6.722-4.174-9.873-3.742-3.918.537-8.434,3.289-7.622,4.644.674,1.125,8.531,10.669,8.783,10.669a67.872,67.872,0,0,0,4.7-5.447Z" fill="#e87789"/>
    <path id="path121" d="M518.775,312.758a19.414,19.414,0,0,1-11.6-9.064c-.83-1.4-1.509-2.226-1.509-1.827,0,.679-3.805.727-57.805.727H390.056V278.957h57.805c54.07,0,57.805.047,57.805.729,0,.4.514-.3,1.142-1.562,3.377-6.777,11.359-11.172,18.045-9.936a18.936,18.936,0,0,1,12.827,9.24c.83,1.4,1.509,2.323,1.509,2.041,0-.391,6.318-.512,26.646-.512h26.646V266.923h6.876V247.8c0-18.839-.013-19.125-.86-19.125-.778,0-.86-.287-.86-3.008v-3.008h-6.017V205.035h6.017v-6.017h13.323v6.017h6.017v17.621h-6.017v3.008c0,2.722-.082,3.008-.86,3.008-.847,0-.86.287-.86,19.125v19.125h5.587v12.034h23.208v23.638H614.831v9.025H592.482v-9.025H565.836c-24.738,0-26.646-.052-26.646-.727,0-.4-.689.422-1.53,1.827a18.71,18.71,0,0,1-8.14,7.729,15.711,15.711,0,0,1-10.745,1.335Zm9.105-4.577c4.745-2.371,4.749-2.18-.137-8.179-2.332-2.864-4.48-5.517-4.773-5.9s-.6-.606-.68-.505l-4.78,5.9c-5.326,6.572-5.31,6.3-.534,8.682a12.169,12.169,0,0,0,10.9,0Zm-12.17-12.193a61.869,61.869,0,0,0,4.139-5.424c0-.263-7.741-9.972-9.058-11.361-.224-.236-.759.463-1.314,1.717a23.023,23.023,0,0,0,0,19.287c1.1,2.478.436,2.925,6.231-4.218Zm19.57,4.539c2.873-5.631,2.861-14.324-.026-19.984-.474-.929-1.021-1.521-1.216-1.315-1.731,1.823-9.006,11.194-8.911,11.479.14.419,8.992,11.458,9.189,11.458a8.447,8.447,0,0,0,.964-1.637Zm-7.9-18.895c5.246-6.481,5.21-6.18,1.006-8.468a13.927,13.927,0,0,0-9.25-1.126c-2.047.554-5.949,3.022-5.949,3.762,0,.607,8.914,11.75,9.3,11.626.151-.049,2.353-2.656,4.892-5.793Z" fill="#2bb3c0"/>
    <path id="path119" d="M518.775,312.758a19.414,19.414,0,0,1-11.6-9.064c-.83-1.4-1.509-2.226-1.509-1.827,0,.679-3.805.727-57.805.727H390.056V278.957h57.805c54.07,0,57.805.047,57.805.729,0,.4.514-.3,1.142-1.562,3.377-6.777,11.359-11.172,18.045-9.936a18.936,18.936,0,0,1,12.827,9.24c.83,1.4,1.509,2.323,1.509,2.041,0-.391,6.318-.512,26.646-.512h26.646V266.923h6.876v-38.25h9.885v38.25h5.587v12.034h23.208v23.638H614.831v9.025H592.482v-9.025H565.836c-24.738,0-26.646-.052-26.646-.727,0-.4-.689.422-1.53,1.827a18.71,18.71,0,0,1-8.14,7.729,15.711,15.711,0,0,1-10.745,1.335Zm9.105-4.577c4.745-2.371,4.749-2.18-.137-8.179-2.332-2.864-4.48-5.517-4.773-5.9s-.6-.606-.68-.505l-4.78,5.9c-5.326,6.572-5.31,6.3-.534,8.682a12.169,12.169,0,0,0,10.9,0Zm-12.17-12.193a61.869,61.869,0,0,0,4.139-5.424c0-.263-7.741-9.972-9.058-11.361-.224-.236-.759.463-1.314,1.717a23.023,23.023,0,0,0,0,19.287c1.1,2.478.436,2.925,6.231-4.218Zm19.57,4.539c2.873-5.631,2.861-14.324-.026-19.984-.474-.929-1.021-1.521-1.216-1.315-1.731,1.823-9.006,11.194-8.911,11.479.14.419,8.992,11.458,9.189,11.458a8.447,8.447,0,0,0,.964-1.637Zm-7.9-18.895c5.246-6.481,5.21-6.18,1.006-8.468a13.927,13.927,0,0,0-9.25-1.126c-2.047.554-5.949,3.022-5.949,3.762,0,.607,8.914,11.75,9.3,11.626.151-.049,2.353-2.656,4.892-5.793Z" fill="#d81d3a"/>
    <path id="path117" d="M592.482,307.108V302.6h-53.39l.234-1.182c.129-.65.633-2.729,1.12-4.62a23.559,23.559,0,0,0,.006-12.464c-.484-1.891-.989-3.873-1.121-4.405l-.241-.967h53.393V266.924h6.876v-38.25h9.885v38.25h5.587v12.034h23.208V302.6H614.831v9.025H592.482v-4.513ZM390.056,290.776V278.957H505.767l-.229.967c-.126.532-.543,2.031-.926,3.331a27.569,27.569,0,0,0-.231,13.538c.5,1.891,1.02,3.97,1.149,4.62l.234,1.182H390.056Z" fill="#585757"/>
  </g>
</svg>
