<?xml version="1.0" encoding="iso-8859-1"?>
<!-- Generator: Adobe Illustrator 19.0.0, SVG Export Plug-In . SVG Version: 6.00 Build 0)  -->
<svg version="1.1" id="Layer_1" xmlns="http://www.w3.org/2000/svg" xmlns:xlink="http://www.w3.org/1999/xlink" x="0px" y="0px"
	 viewBox="0 0 512 512" style="enable-background:new 0 0 512 512;" xml:space="preserve">
<rect x="9.002" y="99.486" style="fill:#894BA2;" width="382.593" height="74.673"/>
<rect x="357.837" y="99.486" style="fill:#763794;" width="33.758" height="74.673"/>
<rect x="9.002" y="235.543" style="fill:#F77935;" width="298.682" height="74.673"/>
<rect x="273.926" y="235.543" style="fill:#D9510D;" width="33.758" height="74.673"/>
<rect x="9.002" y="371.599" style="fill:#FFDB56;" width="205.363" height="74.673"/>
<rect x="180.607" y="371.599" style="fill:#FBA806;" width="33.758" height="74.673"/>
<path d="M502.998,495.121H17.442v-40.408h41.69c4.662,0,8.44-3.779,8.44-8.44s-3.778-8.44-8.44-8.44h-41.69v-57.797h188.489v57.797
	H93.905c-4.662,0-8.44,3.779-8.44,8.44s3.778,8.44,8.44,8.44H214.37c4.662,0,8.44-3.779,8.44-8.44v-74.677
	c0-4.661-3.778-8.44-8.44-8.44H17.442v-44.5h290.24c4.662,0,8.44-3.779,8.44-8.44v-74.677c0-4.661-3.778-8.44-8.44-8.44H17.442
	v-44.5h221.734c4.662,0,8.44-3.779,8.44-8.44c0-4.661-3.778-8.44-8.44-8.44H17.442v-57.799h365.714v57.799H273.949
	c-4.662,0-8.44,3.779-8.44,8.44c0,4.661,3.778,8.44,8.44,8.44h117.646c4.662,0,8.44-3.779,8.44-8.44V99.484
	c0-4.661-3.778-8.44-8.44-8.44H17.442V8.44c0-4.661-3.778-8.44-8.44-8.44s-8.44,3.779-8.44,8.44v91.045v74.678v61.379v74.677v61.379
	v74.677v57.287c0,4.661,3.778,8.44,8.44,8.44h493.996c4.662,0,8.44-3.779,8.44-8.44S507.66,495.121,502.998,495.121z M17.442,243.98
	h281.8v57.798h-281.8V243.98z"/>
<g>
</g>
<g>
</g>
<g>
</g>
<g>
</g>
<g>
</g>
<g>
</g>
<g>
</g>
<g>
</g>
<g>
</g>
<g>
</g>
<g>
</g>
<g>
</g>
<g>
</g>
<g>
</g>
<g>
</g>
</svg>
