<?xml version="1.0" encoding="iso-8859-1"?>
<!-- Generator: Adobe Illustrator 19.0.0, SVG Export Plug-In . SVG Version: 6.00 Build 0)  -->
<svg version="1.1" id="Layer_1" xmlns="http://www.w3.org/2000/svg" xmlns:xlink="http://www.w3.org/1999/xlink" x="0px" y="0px"
	 viewBox="0 0 512 512" style="enable-background:new 0 0 512 512;" xml:space="preserve">
<circle style="fill:#894BA2;" cx="176.781" cy="103.694" r="65.996"/>
<path style="fill:#763794;" d="M176.786,37.697c-4.537,0-8.966,0.459-13.246,1.331c30.1,6.133,52.751,32.753,52.751,64.665
	s-22.651,58.532-52.751,64.666c4.279,0.872,8.709,1.331,13.246,1.331c36.449,0,65.996-29.547,65.996-65.996
	C242.783,67.244,213.234,37.697,176.786,37.697z"/>
<circle style="fill:#F77935;" cx="223.086" cy="323.82" r="116.725"/>
<path style="fill:#D9510D;" d="M223.091,207.098c-4.166,0-8.28,0.223-12.332,0.648c58.667,6.161,104.392,55.777,104.392,116.075
	s-45.724,109.915-104.392,116.076c4.052,0.425,8.166,0.648,12.332,0.648c64.465,0,116.724-52.259,116.724-116.724
	S287.556,207.098,223.091,207.098z"/>
<circle style="fill:#00D9C0;" cx="146.466" cy="247.2" r="40.099"/>
<path style="fill:#1EA29F;" d="M147.553,207.098c-4.506,0-8.832,0.754-12.875,2.125c15.828,5.365,27.224,20.334,27.224,37.975
	s-11.396,32.609-27.224,37.975c4.043,1.371,8.37,2.125,12.875,2.125c22.147,0,40.099-17.953,40.099-40.099
	C187.652,225.052,169.699,207.098,147.553,207.098z"/>
<circle style="fill:#3FC8F2;" cx="339.023" cy="383.235" r="51.434"/>
<path style="fill:#0DAACE;" d="M339.018,331.804c-4.252,0-8.38,0.527-12.332,1.499c22.448,5.525,39.101,25.781,39.101,49.935
	c0,24.154-16.653,44.409-39.101,49.935c3.952,0.972,8.079,1.499,12.332,1.499c28.406,0,51.434-23.028,51.434-51.434
	C390.452,354.832,367.424,331.804,339.018,331.804z"/>
<circle style="fill:#FFDB56;" cx="348.88" cy="208.446" r="93.465"/>
<path style="fill:#FBA806;" d="M348.876,114.972c-4.655,0-9.229,0.345-13.702,1.003c45.126,6.63,79.77,45.502,79.77,92.468
	c0,46.968-34.643,85.839-79.77,92.469c4.473,0.657,9.047,1.003,13.702,1.003c51.623,0,93.471-41.849,93.471-93.472
	C442.348,156.821,400.499,114.972,348.876,114.972z"/>
<path d="M176.786,178.13c41.044,0,74.436-33.393,74.436-74.436s-33.393-74.437-74.436-74.437s-74.437,33.393-74.437,74.436
	S135.742,178.13,176.786,178.13z M176.786,46.136c31.737,0,57.557,25.819,57.557,57.557s-25.819,57.557-57.557,57.557
	s-57.557-25.819-57.557-57.557S145.048,46.136,176.786,46.136z"/>
<path d="M9.002,110.422c4.662,0,8.44-3.778,8.44-8.44V8.44c0-4.662-3.778-8.44-8.44-8.44s-8.44,3.778-8.44,8.44v93.543
	C0.563,106.643,4.34,110.422,9.002,110.422z"/>
<path d="M502.998,495.121H17.442v-359.38c0-4.662-3.778-8.44-8.44-8.44s-8.44,3.778-8.44,8.44v367.82c0,4.662,3.778,8.44,8.44,8.44
	h493.996c4.662,0,8.44-3.778,8.44-8.44S507.66,495.121,502.998,495.121z"/>
<path d="M223.091,448.985c26.352,0,52.066-8.398,73.306-23.749c10.866,11.024,25.956,17.875,42.62,17.875
	c33.014,0,59.874-26.859,59.874-59.874c0-29.875-21.995-54.706-50.641-59.16c0-0.083,0.004-0.172,0.004-0.255
	c0-4.499-0.252-9.006-0.735-13.485c0.452,0.006,0.902,0.017,1.356,0.017c56.194,0,101.911-45.718,101.911-101.911
	s-45.718-101.911-101.911-101.911c-11.788,0-23.346,1.997-34.356,5.938c-4.389,1.571-6.673,6.402-5.102,10.79
	c1.571,4.387,6.402,6.672,10.79,5.102c9.179-3.286,18.825-4.951,28.669-4.951c46.887,0,85.031,38.145,85.031,85.031
	s-38.145,85.031-85.031,85.031c-3.521,0-6.986-0.241-10.396-0.658c-7.276-0.887-14.359-2.722-21.088-5.409
	c-0.215-0.087-0.433-0.168-0.648-0.255c-0.871-0.356-1.732-0.735-2.59-1.12c-0.359-0.161-0.719-0.321-1.075-0.486
	c-0.752-0.349-1.496-0.713-2.237-1.085c-0.468-0.235-0.935-0.474-1.399-0.717c-0.638-0.334-1.272-0.677-1.902-1.027
	c-0.578-0.323-1.151-0.655-1.722-0.991c-0.514-0.303-1.027-0.605-1.536-0.919c-0.713-0.441-1.417-0.896-2.116-1.357
	c-0.361-0.237-0.725-0.47-1.081-0.713c-0.92-0.628-1.826-1.274-2.721-1.937c-0.135-0.099-0.272-0.194-0.406-0.294
	c-5.416-4.061-10.332-8.752-14.641-13.964c-0.046-0.056-0.091-0.115-0.138-0.171c-0.776-0.944-1.533-1.907-2.269-2.884
	c-0.163-0.217-0.321-0.438-0.482-0.656c-0.598-0.809-1.18-1.628-1.75-2.459c-0.253-0.37-0.501-0.745-0.747-1.119
	c-0.446-0.673-0.881-1.353-1.308-2.039c-0.324-0.522-0.643-1.048-0.954-1.575c-0.314-0.53-0.619-1.065-0.922-1.601
	c-0.38-0.679-0.757-1.359-1.119-2.048c-0.194-0.366-0.379-0.737-0.567-1.106c-0.432-0.852-0.859-1.707-1.261-2.572
	c-0.072-0.153-0.14-0.309-0.209-0.464c-4.644-10.138-7.291-21.165-7.673-32.472c0-0.01-0.003-0.019-0.003-0.029
	c-0.033-0.964-0.073-1.926-0.073-2.899c0-24.629,10.67-48.03,29.276-64.201c3.518-3.057,3.891-8.388,0.833-11.905
	c-3.057-3.519-8.389-3.89-11.905-0.833c-20.416,17.744-32.85,42.755-34.804,69.509c-7.929-1.552-16.013-2.354-24.152-2.354
	c-16.606,0-32.67,3.197-47.835,9.488c-8.06-5.958-18.018-9.488-28.788-9.488c-26.764,0-48.539,21.775-48.539,48.539
	c0,10.769,3.53,20.728,9.488,28.787c-6.291,15.165-9.488,31.23-9.488,47.838C97.928,392.837,154.076,448.985,223.091,448.985z
	 M382.012,383.237c0,23.707-19.287,42.995-42.995,42.995c-21.484,0-39.337-15.839-42.497-36.454c0-0.002-0.001-0.006-0.001-0.008
	c-0.098-0.64-0.178-1.286-0.246-1.937c-0.017-0.158-0.032-0.316-0.047-0.475c-0.05-0.517-0.088-1.036-0.119-1.557
	c-0.01-0.18-0.024-0.359-0.032-0.539c-0.032-0.672-0.052-1.346-0.052-2.025c0-2.964,0.302-5.858,0.874-8.654
	c3.729-18.174,18.961-32.203,37.724-34.117c1.441-0.146,2.904-0.222,4.385-0.222l0.422,0.011c0.009,0,0.019-0.001,0.028-0.001
	C362.963,340.492,382.012,359.677,382.012,383.237z M223.091,215.537c8.23,0,16.398,0.925,24.351,2.752
	c1.477,15.337,6.369,29.691,13.904,42.292c0.109,0.183,0.216,0.368,0.326,0.551c0.546,0.899,1.107,1.787,1.679,2.667
	c0.285,0.439,0.572,0.875,0.863,1.31c0.342,0.51,0.692,1.014,1.043,1.517c0.578,0.832,1.17,1.655,1.776,2.47
	c0.144,0.195,0.289,0.388,0.435,0.581c2.031,2.701,4.187,5.319,6.495,7.823c3.162,3.429,6.55,6.603,10.113,9.541
	c0.017,0.013,0.034,0.027,0.05,0.04c1.109,0.914,2.236,1.802,3.38,2.666c0.249,0.189,0.498,0.377,0.749,0.563
	c0.562,0.416,1.124,0.83,1.694,1.234c0.722,0.514,1.453,1.017,2.19,1.512c0.412,0.276,0.826,0.548,1.242,0.818
	c0.836,0.545,1.678,1.081,2.531,1.601c0.185,0.113,0.37,0.223,0.555,0.334c0.98,0.59,1.971,1.161,2.973,1.719
	c0.124,0.069,0.246,0.14,0.371,0.207c9.372,5.171,19.641,8.909,30.507,10.916c0.704,5.021,1.06,10.1,1.06,15.168
	c0,0.009,0,0.018,0,0.027c-0.261,0.034-0.518,0.081-0.778,0.118c-0.432,0.061-0.863,0.126-1.293,0.196
	c-0.524,0.086-1.045,0.181-1.566,0.28c-0.423,0.081-0.847,0.163-1.267,0.253c-0.52,0.111-1.035,0.234-1.551,0.359
	c-0.412,0.1-0.825,0.198-1.234,0.306c-0.52,0.138-1.034,0.289-1.548,0.441c-0.394,0.116-0.79,0.227-1.18,0.351
	c-0.535,0.17-1.062,0.356-1.591,0.539c-0.361,0.126-0.725,0.244-1.083,0.376c-0.598,0.222-1.187,0.461-1.776,0.701
	c-0.279,0.114-0.563,0.217-0.839,0.335c-0.85,0.361-1.69,0.742-2.52,1.141c-0.281,0.136-0.556,0.285-0.835,0.424
	c-0.553,0.277-1.105,0.553-1.649,0.845c-0.345,0.187-0.683,0.386-1.025,0.58c-0.466,0.263-0.933,0.526-1.392,0.801
	c-0.357,0.215-0.707,0.44-1.058,0.662c-0.432,0.272-0.864,0.543-1.288,0.827c-0.354,0.236-0.703,0.482-1.053,0.726
	c-0.41,0.286-0.818,0.573-1.22,0.868c-0.348,0.255-0.689,0.518-1.031,0.78c-0.392,0.302-0.781,0.605-1.165,0.916
	c-0.336,0.271-0.668,0.548-0.998,0.826c-0.377,0.318-0.749,0.641-1.118,0.969c-0.323,0.286-0.643,0.574-0.959,0.868
	c-0.363,0.336-0.72,0.68-1.076,1.025c-0.307,0.298-0.613,0.598-0.913,0.902c-0.352,0.358-0.695,0.724-1.039,1.089
	c-0.287,0.307-0.576,0.612-0.857,0.925c-0.345,0.385-0.68,0.778-1.014,1.17c-0.263,0.309-0.531,0.614-0.788,0.928
	c-0.349,0.426-0.685,0.864-1.023,1.301c-0.227,0.294-0.461,0.582-0.683,0.88c-0.409,0.548-0.8,1.11-1.189,1.672
	c-0.137,0.197-0.281,0.388-0.416,0.587c-0.512,0.758-1.006,1.53-1.484,2.314c-0.169,0.277-0.325,0.561-0.489,0.841
	c-0.306,0.521-0.613,1.041-0.905,1.571c-0.183,0.334-0.354,0.676-0.531,1.015c-0.255,0.487-0.511,0.973-0.753,1.468
	c-0.177,0.362-0.343,0.729-0.513,1.096c-0.224,0.482-0.446,0.962-0.657,1.45c-0.164,0.381-0.32,0.767-0.477,1.152
	c-0.197,0.484-0.392,0.97-0.576,1.461c-0.149,0.393-0.289,0.79-0.43,1.187c-0.174,0.493-0.343,0.988-0.504,1.488
	c-0.129,0.403-0.255,0.807-0.377,1.213c-0.151,0.505-0.295,1.013-0.433,1.522c-0.11,0.407-0.219,0.816-0.321,1.227
	c-0.129,0.52-0.249,1.044-0.363,1.571c-0.09,0.408-0.18,0.816-0.261,1.228c-0.107,0.542-0.2,1.088-0.293,1.635
	c-0.068,0.403-0.14,0.803-0.199,1.209c-0.084,0.575-0.153,1.155-0.222,1.735c-0.045,0.384-0.098,0.765-0.135,1.151
	c-0.063,0.645-0.106,1.294-0.149,1.944c-0.021,0.327-0.053,0.653-0.069,0.981c-0.048,0.981-0.075,1.968-0.075,2.961
	c0,1.153,0.04,2.298,0.106,3.435c0.024,0.41,0.062,0.816,0.093,1.224c0.055,0.715,0.117,1.427,0.198,2.135
	c0.057,0.509,0.124,1.016,0.195,1.522c0.081,0.582,0.172,1.161,0.27,1.737c0.096,0.57,0.194,1.142,0.306,1.708
	c0.09,0.451,0.196,0.897,0.296,1.344c0.527,2.36,1.195,4.679,2.004,6.951c0.086,0.241,0.168,0.482,0.257,0.721
	c0.273,0.737,0.564,1.466,0.866,2.193c0.1,0.241,0.204,0.478,0.307,0.717c0.321,0.743,0.65,1.483,1.003,2.213
	c0.035,0.072,0.072,0.142,0.107,0.214c0.386,0.792,0.769,1.587,1.191,2.363c-18.343,13.195-40.532,20.391-63.255,20.391
	c-59.708,0-108.284-48.576-108.284-108.283c0-12.235,1.995-24.126,5.944-35.481c0.028,0.018,0.059,0.033,0.087,0.051
	c5.607,3.501,11.974,5.889,18.795,6.854c0.044,0.007,0.089,0.01,0.133,0.017c0.96,0.133,1.928,0.235,2.904,0.311
	c0.224,0.018,0.447,0.037,0.671,0.052c1.033,0.066,2.073,0.111,3.122,0.111c0.001,0,0.002,0,0.003,0l0,0h0.001
	c19.237,0,35.895-11.249,43.745-27.514c3.072-6.365,4.794-13.498,4.794-21.025c0-1.052-0.045-2.093-0.111-3.128
	c-0.015-0.221-0.033-0.44-0.051-0.661c-0.077-0.983-0.179-1.96-0.313-2.926c-0.006-0.037-0.009-0.074-0.015-0.11
	c-0.965-6.828-3.356-13.201-6.862-18.812c-0.016-0.025-0.028-0.051-0.044-0.075C198.967,217.533,210.858,215.537,223.091,215.537z
	 M146.467,215.537c8.621,0,16.444,3.467,22.159,9.076c0.111,0.109,0.223,0.217,0.332,0.327c0.279,0.282,0.553,0.569,0.821,0.861
	c0.063,0.069,0.127,0.137,0.189,0.207c5.067,5.615,8.158,13.046,8.158,21.188c0,0.546-0.013,1.088-0.042,1.627
	c-0.055,1.078-0.163,2.141-0.324,3.188c-0.08,0.523-0.173,1.043-0.279,1.557c-2.957,14.414-15.74,25.286-31.016,25.287
	c-8.163,0-15.613-3.107-21.234-8.199c-0.033-0.029-0.065-0.06-0.098-0.089c-0.327-0.299-0.648-0.605-0.963-0.918
	c-0.074-0.074-0.149-0.151-0.223-0.225c-5.648-5.721-9.142-13.573-9.142-22.228C114.807,229.739,129.009,215.537,146.467,215.537z"
	/>
<g>
</g>
<g>
</g>
<g>
</g>
<g>
</g>
<g>
</g>
<g>
</g>
<g>
</g>
<g>
</g>
<g>
</g>
<g>
</g>
<g>
</g>
<g>
</g>
<g>
</g>
<g>
</g>
<g>
</g>
</svg>
