<?xml version="1.0" encoding="iso-8859-1"?>
<!-- Generator: Adobe Illustrator 19.0.0, SVG Export Plug-In . SVG Version: 6.00 Build 0)  -->
<svg version="1.1" id="Layer_1" xmlns="http://www.w3.org/2000/svg" xmlns:xlink="http://www.w3.org/1999/xlink" x="0px" y="0px"
	 viewBox="0 0 512.001 512.001" style="enable-background:new 0 0 512.001 512.001;" xml:space="preserve">
<path style="fill:#F77935;" d="M272.177,246.643l203.559,123.949c17.988-34.339,28.176-73.407,28.176-114.859
	c0-131.481-102.359-239.037-231.735-247.372V246.643z"/>
<path style="fill:#D9510D;" d="M272.177,8.36v4.247c113.677,22.563,199.381,122.82,199.381,243.125
	c0,35.438-7.467,69.122-20.866,99.61l25.045,15.251c17.988-34.339,28.176-73.407,28.176-114.859
	C503.912,124.251,401.553,16.696,272.177,8.36z"/>
<path style="fill:#3FC8F2;" d="M256.005,274.674L53.179,398.31C98.046,462.016,172.158,503.643,256,503.643
	c83.885,0,158.029-41.67,202.889-105.432L256.005,274.674z"/>
<path style="fill:#0DAACE;" d="M435.099,383.726c-48.972,63.033-125.488,103.601-211.49,103.601
	c-30.738,0-60.262-5.187-87.753-14.725c35.592,19.764,76.546,31.041,120.145,31.041c83.885,0,158.029-41.67,202.889-105.432
	L435.099,383.726z"/>
<path style="fill:#FFDB56;" d="M239.823,246.647V8.36C110.447,16.696,8.088,124.251,8.088,255.732
	c0,41.495,10.21,80.6,28.231,114.965L239.823,246.647z"/>
<path style="fill:#FBA806;" d="M207.469,12.606v253.762l32.354-19.722V8.36C228.826,9.069,218.03,10.511,207.469,12.606z"/>
<path d="M442.45,80.323C397.799,32.888,337.513,4.464,272.698,0.288c-2.239-0.149-4.423,0.642-6.052,2.172
	c-1.631,1.528-2.556,3.664-2.556,5.9v238.283c0,2.822,1.471,5.441,3.882,6.909L471.531,377.5c1.279,0.779,2.736,1.18,4.207,1.18
	c0.724,0,1.452-0.097,2.162-0.294c2.154-0.597,3.964-2.06,5.002-4.04c19.037-36.342,29.099-77.358,29.099-118.613
	C512,190.264,487.3,127.97,442.45,80.323z M472.438,359.113L280.265,242.098V17.141C337.691,22.91,390.823,49.079,430.67,91.41
	c42.015,44.634,65.153,102.991,65.153,164.321C495.823,291.486,487.759,327.042,472.438,359.113z"/>
<path d="M463.096,391.303L260.211,267.766c-2.584-1.573-5.831-1.572-8.416,0.002l-46.283,28.213
	c-3.815,2.325-5.021,7.303-2.696,11.117c2.324,3.815,7.3,5.022,11.117,2.697l42.075-25.648l191.161,116.4
	c-45.267,59.649-116.09,95.01-191.168,95.01c-75.034,0-145.829-35.325-191.098-94.918l125.225-76.332
	c3.815-2.325,5.021-7.302,2.696-11.117c-2.324-3.815-7.301-5.022-11.117-2.697L48.969,391.405c-1.911,1.165-3.254,3.07-3.709,5.261
	c-0.455,2.191,0.018,4.473,1.306,6.304C94.53,471.072,172.824,511.731,256,511.731c83.225,0,161.545-40.697,209.504-108.865
	c1.288-1.83,1.76-4.113,1.303-6.304C466.352,394.371,465.007,392.468,463.096,391.303z"/>
<path d="M247.912,246.647V8.359c0-2.236-0.925-4.372-2.556-5.9c-1.631-1.529-3.822-2.317-6.052-2.172
	c-55.809,3.597-107.751,24.81-150.211,61.347c-3.386,2.913-3.769,8.021-0.855,11.406c2.913,3.389,8.021,3.768,11.407,0.855
	c37.581-32.339,83.091-51.862,132.091-56.757v224.967L39.612,359.217c-15.353-32.1-23.435-67.694-23.435-103.486
	c0-58.944,21.587-115.608,60.781-159.551c2.973-3.334,2.681-8.447-0.652-11.42c-3.332-2.974-8.447-2.681-11.42,0.651
	C23.044,132.324,0,192.811,0,255.731c0,41.296,10.083,82.348,29.156,118.721c1.039,1.98,2.849,3.441,5.004,4.038
	c0.71,0.197,1.435,0.293,2.159,0.293c1.471,0,2.93-0.401,4.21-1.182l203.504-124.049
	C246.442,252.086,247.912,249.469,247.912,246.647z"/>
<g>
</g>
<g>
</g>
<g>
</g>
<g>
</g>
<g>
</g>
<g>
</g>
<g>
</g>
<g>
</g>
<g>
</g>
<g>
</g>
<g>
</g>
<g>
</g>
<g>
</g>
<g>
</g>
<g>
</g>
</svg>
