<svg xmlns="http://www.w3.org/2000/svg" width="114.322" height="147.445" viewBox="0 0 114.322 147.445">
  <g id="DrainagePoint" transform="translate(-462.934 -174.125)">
    <path id="path102" d="M488.721,311.685V301.8h10.745V279.451H465.943V290.2h-3.008V263.979h3.008v12.464h33.523V257.962h-3.238l-4.928-9.885-4.928-9.885,4.928-9.885,4.928-9.885h3.238V190.917h6.407l-1.05-2.256c-3.656-7.853,3.022-16.629,10.721-14.088,5.286,1.745,7.8,8.534,5.212,14.088l-1.05,2.256h7.267v27.506h1.415c1.276,0,1.527.221,2.553,2.256l1.137,2.256.026-7.414.026-7.414h22.778v-5.372c0-2.955.145-5.377.322-5.383s5.206,1.2,11.174,2.678l10.852,2.688v15.167l-11.174,2.795-11.174,2.795V211.117h-19.77v18.04l2.248,4.52,2.248,4.52-4.927,9.883c-4.92,9.869-4.929,9.883-6.331,9.883h-1.4V301.8h9.885v19.77H488.721Zm32.663-32.878V257.962H505.053v41.689h16.332Zm0-71.344V196.5H505.053v21.919h16.332Z" fill="#c5c5c5"/>
    <path id="path100" d="M488.721,311.685V301.8h10.745V279.451H465.943V290.2h-3.008V263.979h3.008v12.464h33.523V257.962h-3l-4.946-9.885-4.946-9.885,4.946-9.885,4.946-9.885h3V190.917h3.5c3.438,0,3.49-.016,2.753-.831-1.872-2.068-2.434-6.219-1.3-9.56,1.183-3.472,4.963-6.34,8.384-6.361a10,10,0,0,1,7.241,4.145,10.671,10.671,0,0,1,.46,10.805,9.239,9.239,0,0,0-.847,1.6,16.589,16.589,0,0,0,3.653.2h3.653v27.506h1.282c1.127,0,1.437.3,2.558,2.471l1.276,2.471.021-7.629.021-7.629h22.778v-5.372c0-2.955.145-5.367.322-5.36s5.157,1.228,11.067,2.713l10.745,2.7v14.935l-10.745,2.7c-5.909,1.485-10.89,2.706-11.067,2.713s-.322-2.7-.322-6v-6.017h-19.77v18.5l2.152,4.288,2.152,4.288-4.947,9.887c-4.8,9.6-4.985,9.887-6.235,9.887h-1.288V301.8h9.885v19.77H488.721Zm32.663-32.878V257.962H505.053v41.689h16.332Zm0-71.344V196.5H505.053v21.919h16.332Z" fill="#a2a2a2"/>
    <path id="path98" d="M488.721,311.685V301.8h10.745V279.451H465.943V290.2h-3.008V263.979h3.008v12.464h33.523V257.962h-3l-4.946-9.885-4.946-9.885,4.946-9.885,4.946-9.885h3V190.917h6.816l-1.133-2.027a8.126,8.126,0,0,1-1.123-4.835c.035-10.159,11.951-13.435,16.616-4.568a10.668,10.668,0,0,1-.2,9.388l-1.151,2.041h7.676v27.506h1.282c1.127,0,1.437.3,2.558,2.471l1.276,2.471.021-7.629.021-7.629h22.778v-5.4c0-4.943.064-5.382.752-5.176.414.124,4.717,1.211,9.563,2.414s9.536,2.38,10.422,2.613l1.612.425V217.53l-1.612.425c-.886.234-5.576,1.41-10.422,2.613s-9.149,2.29-9.563,2.414c-.691.207-.752-.263-.752-5.82v-6.046h-19.77v18.5l2.152,4.288,2.152,4.288-4.947,9.887c-4.8,9.6-4.985,9.887-6.235,9.887h-1.288V301.8h9.885v19.77H488.721Zm32.663-32.878V257.962H505.053v41.689h16.332Zm0-71.344V196.5H505.053v21.919h16.332Z" fill="#6c6c6c"/>
    <path id="path96" d="M488.721,311.685V301.8h10.745V279.451H465.943V290.2h-3.008V263.979h3.008v12.464h33.523V257.962h-1.4c-1.4,0-1.411-.014-6.332-9.885l-4.928-9.885,4.928-9.885c4.921-9.871,4.93-9.885,6.332-9.885h1.4V190.917H506.3l-1.1-2.114a11.675,11.675,0,0,1-.589-8.414,8.636,8.636,0,0,1,16.347,0,11.675,11.675,0,0,1-.589,8.414l-1.1,2.114h7.695v27.506h1.2c1.038,0,1.378.358,2.553,2.686l1.355,2.686.026-7.843.026-7.843h22.778v-10.64l11.174,2.795,11.174,2.795V217.53l-1.612.425c-.886.234-5.576,1.41-10.422,2.613s-9.149,2.29-9.563,2.414c-.691.207-.752-.263-.752-5.82v-6.046h-19.77v18.9l2.032,4.092L539.2,238.2l-4.926,9.882c-4.647,9.322-4.993,9.882-6.115,9.882h-1.189V301.8h9.885v19.77H488.721Zm32.663-32.878V257.962H505.053v41.689h16.332Zm0-71.344V196.5H505.053v21.919h16.332Z" fill="#585858"/>
  </g>
</svg>
