<svg xmlns="http://www.w3.org/2000/svg" width="257.6" height="180.398" viewBox="0 0 257.6 180.398">
  <g id="Flowstation" transform="translate(-384.488 -167.546)">
    <path id="path186" d="M398.755,345.581v-2.364H413.8V320.869H407.52a40.349,40.349,0,0,1-8.749-.64,18.671,18.671,0,0,1-13.514-13.659c-1-3.976-1.036-68.838-.044-72.648a18.569,18.569,0,0,1,13.84-13.84c1.982-.516,5.79-.641,19.562-.641h17.1v-20.2h24.5v20.2h96.271V186.347h42.548v-9.484c0-8.833.052-9.469.752-9.257.414.125,9.407,2.386,19.985,5.025l19.233,4.8v24.283l-19.233,4.8c-10.578,2.639-19.571,4.9-19.985,5.025-.7.212-.752-.465-.752-10.117V191.074H561.212V219.44H593.1c27.749,0,32.238.089,34.615.685a18.671,18.671,0,0,1,13.659,13.514c.956,3.689.956,69.341,0,73.03a18.9,18.9,0,0,1-13.558,13.559c-1.9.492-5.217.64-14.336.64H601.611v22.349h10.745v4.728h-213.6Zm197.7-13.538V320.869h-177.5v22.349h177.5Z" fill="#2ab2bf"/>
    <path id="path184" d="M398.755,345.581v-2.364H413.8V320.869h-6.142a39.479,39.479,0,0,1-8.6-.641,18.569,18.569,0,0,1-13.84-13.84c-.957-3.674-.957-68.793,0-72.467a18.569,18.569,0,0,1,13.84-13.84c1.982-.516,5.79-.641,19.562-.641h17.1v-20.2h24.5v20.2h96.271V186.347h42.548v-18.8l19.985,4.992L639,177.529v24.083L619.017,206.6l-19.985,4.992v-20.52H561.212V219.44H593.14c26.915,0,32.315.1,34.39.641a18.569,18.569,0,0,1,13.84,13.84c.957,3.674.957,68.793,0,72.467a18.569,18.569,0,0,1-13.84,13.84c-1.891.492-5.18.641-14.19.641H601.611v22.349h10.745v4.728h-213.6Zm197.7-13.538V320.869h-177.5v22.349h177.5Zm32.11-17.99a14.6,14.6,0,0,0,6.82-7.165c.768-1.991.824-3.441.824-21.262,0-18.539-.028-19.185-.9-21.081a13.315,13.315,0,0,0-9.538-7.672c-3.347-.694-222.031-.667-225.492.028a13.187,13.187,0,0,0-9.883,9.177c-.6,2.072-.679,4.855-.571,20.747.123,18.112.138,18.383,1.113,20.5a13.245,13.245,0,0,0,9.259,7.506c.982.2,52.264.328,113.959.293l112.173-.063,2.241-1.013Z" fill="#d81a38"/>
    <path id="path182" d="M398.755,345.581v-2.364H413.8V320.869h-6.142a39.479,39.479,0,0,1-8.6-.641,18.569,18.569,0,0,1-13.84-13.84c-.957-3.674-.957-68.793,0-72.467a18.569,18.569,0,0,1,13.84-13.84c1.982-.516,5.79-.641,19.562-.641h17.1v-20.2h24.5v20.2h96.271V186.347h42.548v-18.8l19.985,4.992L639,177.529v24.083L619.017,206.6l-19.985,4.992v-20.52H561.212V219.44H593.14c26.915,0,32.315.1,34.39.641a18.569,18.569,0,0,1,13.84,13.84c.957,3.674.957,68.793,0,72.467a18.569,18.569,0,0,1-13.84,13.84c-1.891.492-5.18.641-14.19.641H601.611v22.349h10.745v4.728h-213.6Zm197.7-13.538V320.869h-177.5v22.349h177.5Zm32.019-17.964a14.55,14.55,0,0,0,6.744-6.706l.992-2.191.114-34.457c.113-34.362.111-34.464-.813-36.961a14.082,14.082,0,0,0-7.805-7.816l-2.487-.92H401.366l-2.487.92a14.073,14.073,0,0,0-7.812,7.835c-1.027,2.777-1.06,4.337-1.1,52.059-.016,17.594.04,19.058.8,21.034a13.3,13.3,0,0,0,9.428,7.961c.982.2,52.264.328,113.959.293l112.173-.063ZM400.824,256.537a.865.865,0,0,1,.824.034c.143.143-.111.244-.564.226-.5-.021-.6-.122-.26-.26Zm223.915,0a.865.865,0,0,1,.824.034c.143.143-.111.244-.564.226-.5-.021-.6-.122-.26-.26Z" fill="#585858"/>
    <path id="path180" d="M599.033,189.57V167.546l19.985,4.992L639,177.529v24.083L619.018,206.6l-19.985,4.992Z" fill="#00af4f"/>
  </g>
</svg>
