<svg xmlns="http://www.w3.org/2000/svg" width="257.869" height="118.619" viewBox="0 0 257.869 118.619">
  <g id="GasFacility" transform="translate(-406.279 -193.089)">
    <path id="path165" d="M427.769,309.345v-2.364h15.472V285.492H425.62V264.433H406.28v-4.728h19.34V193.089H646.527v11.6h17.621v4.728H646.527v76.071h-15.9v21.489H641.37v4.728h-213.6ZM625.9,296.237V285.492H447.969v21.489H625.9Zm15.042-56.946V198.676H431.208V279.9H640.94Zm-180.078.215c0-12.055.1-21.919.223-21.919.21,0,34.7,8.584,38.135,9.492l1.612.426v11.053l6.984-.179c8.3-.213,56-1.024,60.169-1.022h2.9V226.216l1.612-.426c3.437-.908,37.925-9.492,38.135-9.492.122,0,.223,9.863.223,21.919s-.1,21.919-.223,21.919c-.21,0-34.7-8.584-38.135-9.492l-1.612-.426V239.471l-9.992.248c-9.971.248-54.773,1.075-58.235,1.075h-1.827v10.711l-1.612.426c-3.437.908-37.925,9.492-38.135,9.492-.122,0-.223-9.863-.223-21.919Z" fill="#989898"/>
    <path id="path163" d="M427.769,309.345v-2.364h15.472V285.492H425.62V264.433H406.28v-4.728h19.34V193.089H646.527v11.6h17.621v4.728H646.527v76.071h-15.9v21.489H641.37v4.728h-213.6ZM625.9,296.237V285.492H447.969v21.489H625.9Zm15.042-56.946V198.676H431.208V279.9H640.94Zm-180.078.215c0-20.73.043-21.964.752-21.749.414.125,9.407,2.386,19.985,5.025l19.233,4.8v23.927l-1.634.44c-.9.242-9.554,2.387-19.233,4.766s-17.937,4.426-18.35,4.548c-.709.209-.752-1.027-.752-21.755Zm129.794,15.673c-10.755-2.688-19.6-4.9-19.662-4.908s-.107-2.469-.107-5.462v-5.442l-15.58.282c-51.574.932-54.045.932-54.045-.007,0-.838.362-.871,12.786-1.141,7.032-.153,21.3-.383,31.7-.51s20.313-.339,22.026-.469l3.116-.237V226.29l19.233-4.8c10.578-2.639,19.571-4.9,19.985-5.025.709-.214.752,1.018.752,21.721,0,12.071-.145,21.932-.322,21.913s-9.122-2.234-19.877-4.922Z" fill="#5bcb8e"/>
    <path id="path161" d="M427.769,309.345v-2.364h15.472V285.492H425.62V264.433H406.28v-4.728h19.34V193.089H646.527v11.6h17.621v4.728H646.527v76.071h-15.9v21.489H641.37v4.728h-213.6ZM625.9,296.237V285.492H447.969v21.489H625.9Zm15.042-56.946V198.676H431.208V279.9H640.94Zm-180.078.215V217.7l19.985,4.992,19.985,4.992v23.653l-19.985,4.992-19.985,4.992Zm129.9,15.544-19.877-5V239.367l-15.58.282c-51.574.932-54.045.932-54.045-.007,0-.838.362-.871,12.786-1.141,7.032-.153,21.3-.383,31.7-.51s20.313-.339,22.026-.469l3.116-.237V226.39l19.985-4.992,19.985-4.992v21.864c0,12.025-.048,21.846-.107,21.824s-9.052-2.293-19.985-5.045Z" fill="#585858"/>
    <path id="path159" d="M460.862,239.505V217.7l19.985,4.992,19.985,4.992v23.653l-19.985,4.992-19.985,4.992Zm129.9,15.544-19.877-5V226.389L590.87,221.4l19.985-4.992V238.27c0,12.025-.048,21.846-.107,21.824s-9.052-2.293-19.985-5.045Z" fill="#00af4f"/>
  </g>
</svg>
