<svg xmlns="http://www.w3.org/2000/svg" width="209.303" height="116.04" viewBox="0 0 209.303 116.04">
  <g id="Manifold" transform="translate(-407.129 -189.843)">
    <path id="path81" d="M408.418,303.949v-1.934h11.174v-7.306h-5.587V292.13h-5.587V281.386h5.587v-2.579h5.587V267.244l-2.559-.128-2.559-.128,2.989-3.96a51.383,51.383,0,0,0,2.989-4.19,48.747,48.747,0,0,0-6.662-.23h-6.662v-20.2h156.44v5.157h20.2v-8.6h8.6V221.646H576.892v-5.157h15.472V213.48h8.166v3.008h15.9v5.157h-15.9v13.323h8.6v25.357H583.768V252.16h-20.2v6.447h-6.662a48.752,48.752,0,0,0-6.662.23,51.38,51.38,0,0,0,2.989,4.19l2.989,3.96-2.774.127-2.774.127v11.565h6.017v2.579h5.157V292.13h-5.157v2.579h-6.017v7.306H561.85v3.868H535.2v-3.868h11.174v-7.306H540.79V292.13H535.2V281.385h5.587v-2.579h5.587V267.246l-2.345-.129-2.345-.129,2.989-3.96a51.387,51.387,0,0,0,2.989-4.19c0-.126-13.732-.23-30.514-.23s-30.514.1-30.514.23a51.383,51.383,0,0,0,2.989,4.19l2.989,3.96-2.559.128-2.559.128v11.563h5.587v2.579h5.587V292.13h-5.587v2.579H487.5v7.306h11.174v3.868H472.025v-3.868H482.77v-7.306h-5.157V292.13h-5.587V281.386h5.587v-2.579h5.157V267.246l-2.345-.129-2.345-.129,2.989-3.96a51.378,51.378,0,0,0,2.989-4.19c0-.126-13.732-.23-30.514-.23s-30.514.1-30.514.23a51.383,51.383,0,0,0,2.989,4.19l2.989,3.96-2.559.128-2.559.128v11.563h5.587v2.579h5.587V292.13h-5.587v2.579H423.89v7.306h11.174v3.868H408.418Zm9.542-70.575-3.47-4.636,2.551-.128,2.551-.128V216.919h-5.587V214.34h-5.587V203.6h5.587v-2.579h5.587V193.71H408.418v-3.868h26.646v3.868H424.32v7.306h5.157V203.6h5.587V214.34h-5.587v2.579H424.32V228.48l2.339.129,2.339.129-3.376,4.5a41.075,41.075,0,0,1-3.784,4.636c-.224.075-1.969-1.95-3.877-4.5Zm63.178,0-3.469-4.636,2.765-.127,2.765-.127V216.919h-6.017V214.34h-5.157V203.6h5.157v-2.579H483.2V193.71H472.025v-3.868h26.646v3.868H487.5v7.306h5.587V203.6h5.587V214.34h-5.587v2.579H487.5V228.48l2.339.129,2.339.129-3.376,4.5a41.075,41.075,0,0,1-3.784,4.636c-.224.075-1.969-1.95-3.877-4.5Zm63.607,0-3.469-4.636,2.765-.127,2.765-.127V216.919H540.79V214.34H535.2V203.6h5.587v-2.579h6.017V193.71H535.2v-3.868h26.646v3.868H551.1v7.306h5.587V203.6h5.157V214.34h-5.157v2.579H551.1V228.48l2.339.129,2.339.129-3.376,4.5a41.081,41.081,0,0,1-3.784,4.636c-.224.075-1.969-1.95-3.877-4.5Z" fill="#e87789"/>
    <path id="path79" d="M408.418,303.949v-1.934h11.174v-7.306h-5.587V292.13h-5.587V281.386h5.587v-2.579h5.587V267.2h-2.364a6.312,6.312,0,0,1-2.364-.23,51.379,51.379,0,0,1,2.987-4.19l2.987-3.96-6.855-.118-6.855-.118V238.407h156.44v5.157h20.2v-8.6h8.6V221.646H576.892v-5.157h15.472V213.48h8.166v3.008h15.9v5.157h-15.9v13.323h8.6v25.357H583.768V252.16h-20.2v6.425l-6.855.118-6.855.118,2.987,3.96a51.383,51.383,0,0,1,2.987,4.19,7.474,7.474,0,0,1-2.579.23h-2.579v11.6h6.017v2.579h5.157V292.13h-5.157v2.579h-6.017v7.306h11.174v3.868H535.2v-3.868h11.174v-7.306H540.79V292.13H535.2V281.385h5.587v-2.579h5.587V267.2h-2.149a5.251,5.251,0,0,1-2.149-.23,51.376,51.376,0,0,1,2.987-4.19l2.987-3.96-15.45-.113c-8.5-.062-22.4-.062-30.9,0l-15.45.113,2.987,3.96a51.381,51.381,0,0,1,2.987,4.19,6.312,6.312,0,0,1-2.364.23H487.5v11.6h5.587v2.579h5.587V292.13h-5.587v2.579H487.5v7.306h11.174v3.868H472.025v-3.868H482.77v-7.306h-5.157V292.13h-5.587V281.385h5.587v-2.579h5.157V267.2h-2.149a5.251,5.251,0,0,1-2.149-.23,51.381,51.381,0,0,1,2.987-4.19l2.987-3.96L469,258.709c-8.5-.062-22.4-.062-30.9,0l-15.45.113,2.987,3.96a51.381,51.381,0,0,1,2.987,4.19,6.312,6.312,0,0,1-2.364.23H423.89v11.6h5.587v2.579h5.587V292.13h-5.587v2.579H423.89v7.306h11.174v3.868H408.418ZM418.3,233.6c-1.773-2.393-3.288-4.513-3.367-4.712s.937-.362,2.256-.362h2.4v-11.6h-5.587V214.34h-5.587V203.6h5.587v-2.579h5.587V193.71H408.418v-3.868h26.646v3.868H424.32v7.306h5.157V203.6h5.587V214.34h-5.587v2.579H424.32v11.6H426.5c1.2,0,2.12.163,2.041.362-.25.632-6.58,9.062-6.8,9.062a46.785,46.785,0,0,1-3.438-4.35Zm63.178,0c-1.773-2.393-3.288-4.513-3.367-4.712s1.033-.362,2.471-.362H483.2v-11.6h-6.017V214.34h-5.157V203.6h5.157v-2.579H483.2V193.71H472.026v-3.868h26.646v3.868H487.5v7.306h5.587V203.6h5.587V214.34h-5.587v2.579H487.5v11.6h2.185c1.2,0,2.12.163,2.041.362-.25.632-6.58,9.062-6.8,9.062a46.791,46.791,0,0,1-3.438-4.35Zm63.607,0c-1.773-2.393-3.288-4.513-3.367-4.712s1.033-.362,2.471-.362h2.615v-11.6H540.79V214.34H535.2V203.6h5.587v-2.579h6.017V193.71H535.2v-3.868H561.85v3.868H551.105v7.306h5.587V203.6h5.157V214.34h-5.157v2.579h-5.587v11.6h2.185c1.2,0,2.12.163,2.041.362-.25.632-6.58,9.062-6.8,9.062a46.791,46.791,0,0,1-3.438-4.35Z" fill="#2ab3c0"/>
    <path id="path77" d="M408.418,303.949v-1.934h11.174v-7.306h-5.587V292.13h-5.587V281.386h5.587v-2.579h5.587V267.2h-2.364a6.312,6.312,0,0,1-2.364-.23,51.379,51.379,0,0,1,2.987-4.19l2.987-3.96-6.855-.118-6.855-.118V238.407h156.44v5.157h20.2v-8.6h25.357v25.357H583.768V252.16h-20.2v6.425l-6.855.118-6.855.118,2.987,3.96a51.383,51.383,0,0,1,2.987,4.19,7.474,7.474,0,0,1-2.579.23h-2.579v11.6h6.017v2.579h5.157V292.13h-5.157v2.579h-6.017v7.306h11.174v3.868H535.2v-3.868h11.174v-7.306H540.79V292.13H535.2V281.385h5.587v-2.579h5.587V267.2h-2.149a5.251,5.251,0,0,1-2.149-.23,51.376,51.376,0,0,1,2.987-4.19l2.987-3.96-15.45-.113c-8.5-.062-22.4-.062-30.9,0l-15.45.113,2.987,3.96a51.381,51.381,0,0,1,2.987,4.19,6.312,6.312,0,0,1-2.364.23H487.5v11.6h5.587v2.579h5.587V292.13h-5.587v2.579H487.5v7.306h11.174v3.868H472.025v-3.868H482.77v-7.306h-5.157V292.13h-5.587V281.385h5.587v-2.579h5.157V267.2h-2.149a5.251,5.251,0,0,1-2.149-.23,51.381,51.381,0,0,1,2.987-4.19l2.987-3.96L469,258.709c-8.5-.062-22.4-.062-30.9,0l-15.45.113,2.987,3.96a51.381,51.381,0,0,1,2.987,4.19,6.312,6.312,0,0,1-2.364.23H423.89v11.6h5.587v2.579h5.587V292.13h-5.587v2.579H423.89v7.306h11.174v3.868H408.418ZM418.3,233.6c-1.773-2.393-3.288-4.513-3.367-4.712s.937-.362,2.256-.362h2.4v-11.6h-5.587V214.34h-5.587V203.6h5.587v-2.579h5.587V193.71H408.418v-3.868h26.646v3.868H424.32v7.306h5.157V203.6h5.587V214.34h-5.587v2.579H424.32v11.6H426.5c1.2,0,2.12.163,2.041.362-.25.632-6.58,9.062-6.8,9.062a46.785,46.785,0,0,1-3.438-4.35Zm63.178,0c-1.773-2.393-3.288-4.513-3.367-4.712s1.033-.362,2.471-.362H483.2v-11.6h-6.017V214.34h-5.157V203.6h5.157v-2.579H483.2V193.71H472.026v-3.868h26.646v3.868H487.5v7.306h5.587V203.6h5.587V214.34h-5.587v2.579H487.5v11.6h2.185c1.2,0,2.12.163,2.041.362-.25.632-6.58,9.062-6.8,9.062a46.791,46.791,0,0,1-3.438-4.35Zm63.607,0c-1.773-2.393-3.288-4.513-3.367-4.712s1.033-.362,2.471-.362h2.615v-11.6H540.79V214.34H535.2V203.6h5.587v-2.579h6.017V193.71H535.2v-3.868H561.85v3.868H551.105v7.306h5.587V203.6h5.157V214.34h-5.157v2.579h-5.587v11.6h2.185c1.2,0,2.12.163,2.041.362-.25.632-6.58,9.062-6.8,9.062a46.791,46.791,0,0,1-3.438-4.35Z" fill="#d91a38"/>
    <path id="path75" d="M408.418,303.949v-1.934h26.646v3.868H408.418Zm63.607,0v-1.934h26.646v3.868H472.025Zm63.178,0v-1.934h26.646v3.868H535.2Zm-121.2-10.529v-1.289h-5.587V281.386h5.587v-2.579h5.587v15.9h-5.587Zm9.885-6.662v-7.951h5.587v2.579h5.587v10.745h-5.587v2.579H423.89Zm53.723,6.662v-1.289h-5.587V281.386h5.587v-2.579h5.157v15.9h-5.157Zm9.885-6.662v-7.951h5.587v2.579h5.587v10.745h-5.587v2.579H487.5Zm53.293,6.662v-1.289H535.2V281.386h5.587v-2.579h5.587v15.9H540.79Zm9.885-6.662v-7.951h6.017v2.579h5.157v10.745h-5.157v2.579h-6.017Zm33.093-39.11V234.97h25.357v25.357H583.768Zm-176.64.86v-10.1h156.44v2.579c0,1.433-.191,2.579-.43,2.579-.258,0-.43,1.719-.43,4.3s.172,4.3.43,4.3.43,1.361.43,3.223v3.223h-6.791c-4.708,0-6.949-.158-7.306-.516-.4-.4-.63-.4-1.031,0-.746.746-61.83.746-62.576,0-.4-.4-.63-.4-1.031,0-.746.746-61.83.746-62.576,0-.4-.4-.63-.4-1.031,0-.358.358-2.6.516-7.306.516h-6.791Zm150.853,0V244H412.715v9.025H557.981ZM414.005,215.63v-1.289h-5.587V203.6h5.587v-2.579h5.587v15.9h-5.587Zm10.315-6.662v-7.951h5.157V203.6h5.587v10.745h-5.587v2.579H424.32Zm52.863,6.662v-1.289h-5.157V203.6h5.157v-2.579H483.2v15.9h-6.017Zm10.315-6.662v-7.951h5.587V203.6h5.587v10.745h-5.587v2.579H487.5Zm53.293,6.662v-1.289H535.2V203.6h5.587v-2.579h6.017v15.9H540.79Zm10.315-6.662v-7.951h5.587V203.6h5.157v10.745h-5.157v2.579H551.1ZM408.418,191.777v-1.934h26.646v3.868H408.418Zm63.607,0v-1.934h26.646v3.868H472.025Zm63.178,0v-1.934h26.646v3.868H535.2Z" fill="#585757"/>
  </g>
</svg>
