<svg xmlns="http://www.w3.org/2000/svg" width="79.18" height="116.901" viewBox="0 0 79.18 116.901">
  <g id="ApexLogo" transform="translate(52.656 -146.937)">
    <g id="g3724" transform="translate(-108.268 58.066)">
      <path id="path3762" d="M56.11,204.777c.208-.547,4.361-8.959,9.23-18.693s8.852-17.793,8.852-17.908-4.18-.261-9.289-.324l-9.289-.116L75.32,128.3C86.16,106.616,95.127,88.871,95.248,88.871c.214,0,39.542,78.439,39.542,78.865,0,.118-4.158.214-9.24.214s-9.24.1-9.24.217,4.158,8.531,9.24,18.693,9.24,18.574,9.24,18.693-17.788.217-39.529.217H55.731Z" fill="#fafdfd"/>
      <path id="path3760" d="M65.161,186.869l9.453-18.9-9.5-.116-9.5-.116L75.32,128.3C86.16,106.615,95.127,88.871,95.248,88.871c.214,0,39.542,78.439,39.542,78.865,0,.118-4.255.214-9.456.214h-9.456l9.457,18.91,9.457,18.91H55.708Z" fill="#fefafa"/>
      <path id="path3758" d="M65.165,186.861l9.457-18.91H55.711l19.661-39.325C86.185,107,95.131,89.3,95.25,89.3s9.065,17.7,19.878,39.325l19.661,39.325H115.877l9.457,18.91,9.457,18.91H55.708Z" fill="#b4e3eb"/>
      <path id="path3756" d="M56.14,205.34c0-.237,4.159-8.747,9.241-18.91l9.241-18.479H55.711l19.661-39.325C86.185,107,95.131,89.3,95.25,89.3s9.065,17.7,19.878,39.325l19.661,39.325H115.877l9.457,18.91,9.457,18.91H95.466c-26.049,0-39.326-.146-39.326-.432Z" fill="#a6dee7"/>
      <path id="path3754" d="M56.14,205.555c0-.119,4.158-8.531,9.24-18.693s9.24-18.574,9.24-18.693-4.255-.217-9.455-.217H55.711l19.661-39.325C86.185,107,95.131,89.3,95.25,89.3s9.065,17.7,19.878,39.325l19.661,39.325h-9.455c-5.2,0-9.455.1-9.455.217s4.158,8.531,9.24,18.693,9.24,18.574,9.24,18.693-17.6.217-39.11.217-39.11-.1-39.11-.217Z" fill="#feaeae"/>
      <path id="path3752" d="M56.14,205.555c0-.119,4.158-8.531,9.24-18.693s9.24-18.574,9.24-18.693-4.158-.217-9.24-.217c-5.865,0-9.24-.157-9.24-.429,0-.564,38.828-78.221,39.11-78.221.119,0,9.065,17.7,19.878,39.325l19.661,39.325h-9.455c-5.2,0-9.455.1-9.455.217s4.158,8.531,9.24,18.693,9.24,18.574,9.24,18.693-17.6.217-39.11.217-39.11-.1-39.11-.217Z" fill="#fe9e9e"/>
      <path id="path3750" d="M56.14,205.555c0-.119,4.158-8.531,9.24-18.693s9.24-18.574,9.24-18.693-4.158-.217-9.24-.217-9.24-.1-9.24-.214c0-.423,38.9-78.006,39.11-78.006s39.11,77.582,39.11,78.006c0,.118-4.158.214-9.24.214s-9.24.1-9.24.217,4.158,8.531,9.24,18.693,9.24,18.574,9.24,18.693-17.6.217-39.11.217S56.14,205.674,56.14,205.555Z" fill="#38b5ca"/>
      <path id="path3748" d="M56.539,204.777c.208-.547,4.361-8.959,9.23-18.693s8.852-17.8,8.852-17.916-4.158-.217-9.24-.217-9.24-.1-9.24-.214c0-.423,38.9-78.006,39.11-78.006s39.11,77.582,39.11,78.006c0,.118-4.158.214-9.24.214s-9.24.1-9.24.217,4.158,8.531,9.24,18.693,9.24,18.574,9.24,18.693-17.595.217-39.1.217h-39.1Z" fill="#34b4c9"/>
      <path id="path3746" d="M65.6,186.861l9.457-18.91H65.6c-5.2,0-9.456-.1-9.456-.214,0-.423,38.9-78.006,39.11-78.006s39.11,77.582,39.11,78.006c0,.118-4.255.214-9.456.214h-9.456l9.457,18.91,9.457,18.91H56.138Z" fill="#13a8c0"/>
      <path id="path3744" d="M56.14,167.737c0-.423,38.9-78.006,39.11-78.006s39.11,77.582,39.11,78.006c0,.118-17.6.214-39.11.214S56.14,167.855,56.14,167.737Z" fill="#fe2727"/>
      <path id="path3742" d="M56.719,166.554c1.145-2.709,38.317-76.823,38.531-76.823s39.11,77.582,39.11,78.006c0,.118-17.6.214-39.116.214H56.129Z" fill="#fe2323"/>
      <path id="path3740" d="M75.587,129.056c10.7-21.392,19.544-38.9,19.663-38.9s8.968,17.5,19.663,38.9l19.446,38.9H56.141Z" fill="#ae2b31"/>
      <path id="path3738" d="M75.59,129.05c10.694-21.389,19.541-38.889,19.66-38.889s8.968,17.5,19.664,38.9l19.447,38.9-39.107-.007-39.107-.007L75.59,129.05Z" fill="#af272d"/>
      <path id="path3736" d="M75.589,129.051c10.694-21.39,19.541-38.89,19.661-38.89s8.967,17.5,19.661,38.89l19.444,38.891H56.145Z" fill="#fa0202"/>
      <path id="path3734" d="M75.587,129.056c10.7-21.392,19.544-38.9,19.663-38.9s8.966,17.5,19.66,38.889l19.443,38.889-29.7.007c-28.1.006-29.683-.034-29.435-.746s.234-.717-.324,0c-.525.674-1.528.752-9.671.752H56.141Z" fill="#fe0000"/>
      <path id="path3732" d="M75.169,167.091c.036-.473.228-.86.428-.86s.244-.193.1-.43-.049-.43.215-.43.361-.193.215-.43-.049-.43.215-.43.361-.193.215-.43-.049-.43.215-.43.361-.193.215-.43-.049-.43.215-.43.361-.193.215-.43-.049-.43.215-.43.361-.193.215-.43-.049-.43.215-.43.361-.193.215-.43-.049-.43.215-.43.361-.193.215-.43-.049-.43.215-.43.361-.193.215-.43-.049-.43.215-.43.361-.193.215-.43-.049-.43.215-.43.361-.193.215-.43-.049-.43.215-.43.361-.193.215-.43-.049-.43.215-.43.361-.193.215-.43-.049-.43.215-.43.361-.193.215-.43-.049-.43.215-.43.361-.193.215-.43-.049-.43.215-.43.361-.193.215-.43-.049-.43.215-.43.361-.193.215-.43-.049-.43.215-.43.361-.193.215-.43-.049-.43.215-.43.361-.193.215-.43-.049-.43.215-.43.361-.193.215-.43-.049-.43.215-.43.361-.193.215-.43-.049-.43.215-.43.361-.193.215-.43-.049-.43.215-.43.361-.193.215-.43-.049-.43.215-.43.361-.193.215-.43-.049-.43.215-.43.361-.193.215-.43-.049-.43.215-.43.361-.193.215-.43-.049-.43.215-.43.361-.193.215-.43-.049-.43.215-.43.361-.193.215-.43-.049-.43.215-.43.361-.193.215-.43-.049-.43.215-.43.361-.193.215-.43-.049-.43.215-.43.361-.193.215-.43-.049-.43.215-.43.361-.193.215-.43-.049-.43.215-.43.361-.193.215-.43-.049-.43.215-.43.361-.193.215-.43-.049-.43.215-.43.361-.193.215-.43-.049-.43.215-.43.361-.193.215-.43-.049-.43.215-.43.361-.193.215-.43-.049-.43.215-.43.361-.193.215-.43-.049-.43.215-.43.361-.193.215-.43-.049-.43.215-.43.361-.193.215-.43-.049-.43.215-.43.361-.193.215-.43-.049-.43.215-.43.361-.193.215-.43-.049-.43.215-.43.361-.193.215-.43-.049-.43.215-.43.361-.193.215-.43-.049-.43.215-.43.361-.193.215-.43.144-.43.645-.43.791.193.645.43-.049.43.215.43.361.193.215.43-.049.43.215.43.361.193.215.43-.049.43.215.43.361.193.215.43-.049.43.215.43.361.193.215.43-.049.43.215.43.361.193.215.43-.049.43.215.43.361.193.215.43-.049.43.215.43.361.193.215.43-.049.43.215.43.361.193.215.43-.049.43.215.43.361.193.215.43-.049.43.215.43.361.193.215.43-.049.43.215.43.361.193.215.43-.049.43.215.43.361.193.215.43-.049.43.215.43.361.193.215.43-.049.43.215.43.361.193.215.43-.049.43.215.43.361.193.215.43-.049.43.215.43.361.193.215.43-.049.43.215.43.361.193.215.43-.049.43.215.43.361.193.215.43-.049.43.215.43.361.193.215.43-.049.43.215.43.361.193.215.43-.049.43.215.43.361.193.215.43-.049.43.215.43.361.193.215.43-.049.43.215.43.361.193.215.43-.049.43.215.43.361.193.215.43-.049.43.215.43.361.193.215.43-.049.43.215.43.361.193.215.43-.049.43.215.43.361.193.215.43-.049.43.215.43.361.193.215.43-.049.43.215.43.361.193.215.43-.049.43.215.43.361.193.215.43-.049.43.215.43.361.193.215.43-.049.43.215.43.361.193.215.43-.049.43.215.43.361.193.215.43-.049.43.215.43.361.193.215.43-.049.43.215.43.361.193.215.43-.049.43.215.43.361.193.215.43-.049.43.215.43.361.193.215.43-.049.43.215.43.361.193.215.43-.049.43.215.43.361.193.215.43-.049.43.215.43.361.193.215.43-.049.43.215.43.361.193.215.43-.049.43.215.43.361.193.215.43-.049.43.215.43.361.193.215.43-.049.43.215.43.361.193.215.43-.049.43.215.43.361.193.215.43-.049.43.215.43.361.193.215.43c-.171.277-7.445.43-20.413.43-19.883,0-20.147-.011-20.083-.86Z" fill="#f90202"/>
      <path id="path3730" d="M75.05,167.737c0-.425,19.986-40.186,20.2-40.186s20.2,39.761,20.2,40.186c0,.118-9.09.214-20.2.214S75.05,167.855,75.05,167.737Z" fill="#a91619"/>
      <path id="path3728" d="M75.629,166.554c1.139-2.7,19.4-39,19.621-39s20.2,39.761,20.2,40.186c0,.118-9.092.214-20.205.214H75.039Z" fill="#ab1316"/>
      <path id="path3726" d="M85.041,147.966c5.494-10.992,10.088-19.985,10.209-19.985s4.715,8.993,10.209,19.985l9.99,19.985h-40.4Z" fill="#bf0000"/>
    </g>
  </g>
</svg>
