<svg xmlns="http://www.w3.org/2000/svg" width="28.961" height="40.713" viewBox="0 0 28.961 40.713">
  <g id="g21" transform="translate(-182.069 -221.508)">
    <path id="path81" d="M182.07,262.135c0-.047,1.3-2.676,2.879-5.842l2.879-5.756h-2.879a24.572,24.572,0,0,1-2.879-.085c0-.165,14.4-28.871,14.478-28.871s14.478,28.705,14.478,28.871a24.572,24.572,0,0,1-2.879.085h-2.879l2.879,5.756c1.584,3.166,2.879,5.795,2.879,5.842s-6.515.086-14.478.086S182.07,262.182,182.07,262.135Zm25.231-2.2c0-.046-1.047-2.18-2.327-4.741l-2.327-4.657h-12.2l-2.327,4.657c-1.28,2.562-2.327,4.7-2.327,4.741s4.839.084,10.753.084,10.753-.038,10.753-.084Zm-14.861-19.083c2.086-4.116,3.881-7.512,3.988-7.548a83.754,83.754,0,0,1,3.967,7.483l3.773,7.548h1.567a4.867,4.867,0,0,0,1.558-.127c-.005-.07-2.425-4.947-5.377-10.838l-5.367-10.711-5.376,10.753c-2.957,5.914-5.376,10.791-5.376,10.838a6.131,6.131,0,0,0,1.425.084h1.425Z" fill="#f9ebeb"/>
    <path id="path79" d="M182.07,262.135c0-.047,1.3-2.676,2.879-5.842l2.879-5.756h-2.879a24.572,24.572,0,0,1-2.879-.085c0-.165,14.4-28.871,14.478-28.871s14.478,28.705,14.478,28.871a24.572,24.572,0,0,1-2.879.085h-2.879l2.879,5.756c1.584,3.166,2.879,5.795,2.879,5.842s-6.515.086-14.478.086S182.07,262.182,182.07,262.135Zm25.231-2.2c0-.046-1.047-2.18-2.327-4.741l-2.327-4.657h-12.2l-2.327,4.657c-1.28,2.562-2.327,4.7-2.327,4.741s4.839.084,10.753.084,10.753-.038,10.753-.084ZM192.487,240.8c2.083-4.1,3.865-7.473,3.96-7.505s1.871,3.339,3.946,7.49l3.773,7.548h1.567a4.867,4.867,0,0,0,1.558-.127c-.005-.07-2.425-4.947-5.377-10.838l-5.367-10.711-5.376,10.753c-2.957,5.914-5.376,10.794-5.376,10.844a5.882,5.882,0,0,0,1.453.042l1.453-.049Z" fill="#f3d5d5"/>
    <path id="path77" d="M182.07,262.135c0-.047,1.3-2.676,2.879-5.842l2.879-5.756h-2.879a24.572,24.572,0,0,1-2.879-.085c0-.165,14.4-28.871,14.478-28.871s14.478,28.705,14.478,28.871a24.572,24.572,0,0,1-2.879.085h-2.879l2.879,5.756c1.584,3.166,2.879,5.795,2.879,5.842s-6.515.086-14.478.086S182.07,262.182,182.07,262.135Zm25.231-2.2c0-.046-1.047-2.18-2.327-4.741l-2.327-4.657h-12.2l-2.327,4.657c-1.28,2.562-2.327,4.7-2.327,4.741s4.839.084,10.753.084,10.753-.038,10.753-.084ZM192.512,240.8c2.066-4.1,3.835-7.473,3.932-7.505s1.874,3.337,3.949,7.489l3.773,7.548h1.567a4.867,4.867,0,0,0,1.558-.127c-.005-.07-2.425-4.947-5.377-10.838l-5.367-10.711-5.376,10.753c-2.957,5.914-5.376,10.794-5.376,10.844a6.106,6.106,0,0,0,1.48.042l1.48-.049Z" fill="#c4e8ee"/>
    <path id="path75" d="M184.948,256.464c1.584-3.166,2.879-5.795,2.879-5.842a24.412,24.412,0,0,0-2.879-.086,24.564,24.564,0,0,1-2.879-.085c0-.165,14.4-28.871,14.478-28.871s14.478,28.705,14.478,28.871a24.572,24.572,0,0,1-2.879.085h-2.879l2.879,5.756c1.584,3.166,2.879,5.795,2.879,5.842s-6.515.086-14.479.086H182.069Zm22.353,3.471c0-.046-1.047-2.18-2.327-4.741l-2.327-4.657h-12.2l-2.327,4.657c-1.28,2.562-2.327,4.7-2.327,4.741s4.839.084,10.753.084,10.753-.038,10.753-.084ZM192.512,240.8c2.066-4.1,3.831-7.471,3.923-7.5s1.87,3.339,3.95,7.487l3.783,7.543h1.566a4.861,4.861,0,0,0,1.557-.126c-.005-.07-2.425-4.947-5.377-10.838l-5.367-10.711-5.376,10.753c-2.957,5.914-5.376,10.794-5.376,10.844a6.106,6.106,0,0,0,1.48.042l1.48-.049Z" fill="#b3e2ea"/>
    <path id="path73" d="M184.948,256.464c1.584-3.166,2.879-5.795,2.879-5.842a24.412,24.412,0,0,0-2.879-.086,24.564,24.564,0,0,1-2.879-.085c0-.165,14.4-28.871,14.478-28.871s14.478,28.705,14.478,28.871a24.563,24.563,0,0,1-2.879.085,24.413,24.413,0,0,0-2.879.086c0,.047,1.3,2.676,2.879,5.842l2.879,5.756H182.069Zm20.151-1.186-2.372-4.741H190.368L188,255.278l-2.372,4.741h21.846Zm-12.562-14.523c2.079-4.123,3.854-7.45,3.945-7.394s1.838,3.448,3.884,7.538l3.719,7.437h1.608a5.122,5.122,0,0,0,1.6-.127c-.005-.07-2.425-4.947-5.377-10.838l-5.367-10.711-5.376,10.753c-2.957,5.914-5.376,10.794-5.376,10.844a6.107,6.107,0,0,0,1.481.042l1.481-.049Z" fill="#febfbf"/>
    <path id="path71" d="M184.948,256.464c1.584-3.166,2.879-5.793,2.879-5.838a25.282,25.282,0,0,0-2.858-.128l-2.858-.046,7.236-14.472,7.236-14.472,7.221,14.424c3.971,7.933,7.221,14.464,7.221,14.514a23.085,23.085,0,0,1-2.879.091,24.413,24.413,0,0,0-2.879.086c0,.047,1.3,2.676,2.879,5.842l2.879,5.756H182.069Zm20.151-1.186-2.372-4.741H190.368L188,255.278l-2.372,4.741h21.846ZM192.531,240.75a83.188,83.188,0,0,1,3.944-7.394c.094.058,1.845,3.452,3.89,7.542l3.719,7.437h1.608a5.122,5.122,0,0,0,1.6-.127c-.005-.07-2.425-4.947-5.377-10.838l-5.367-10.711-5.376,10.753c-2.957,5.914-5.376,10.794-5.376,10.844a6.115,6.115,0,0,0,1.482.042l1.482-.049Z" fill="#feafaf"/>
    <path id="path69" d="M184.948,256.464c1.584-3.166,2.879-5.795,2.879-5.842a24.41,24.41,0,0,0-2.879-.086H182.07l7.239-14.478,7.239-14.478,7.219,14.436,7.219,14.436-2.858.046a25.294,25.294,0,0,0-2.858.128c0,.045,1.3,2.672,2.879,5.838l2.879,5.756H182.069Zm20.151-1.186-2.372-4.741H190.368L188,255.278l-2.372,4.741h21.846Zm-12.568-14.486a81.856,81.856,0,0,1,3.943-7.437c.095.059,1.846,3.453,3.891,7.543l3.719,7.437h3.386L202.051,237.5c-2.981-5.961-5.457-10.837-5.5-10.837s-2.523,4.877-5.5,10.837l-5.419,10.837h3.135Z" fill="#e49797"/>
    <path id="path67" d="M184.948,256.464c1.584-3.166,2.879-5.795,2.879-5.842a24.41,24.41,0,0,0-2.879-.086H182.07l7.239-14.478,7.239-14.478,7.219,14.436,7.219,14.436-2.858.046a25.294,25.294,0,0,0-2.858.128c0,.045,1.3,2.672,2.879,5.838l2.879,5.756H182.069Zm20.151-1.186-2.372-4.741H190.368L188,255.278l-2.372,4.741h21.846Zm-12.54-14.472c2.09-4.137,3.865-7.481,3.944-7.432s1.817,3.435,3.863,7.525l3.719,7.437h3.386L202.051,237.5c-2.981-5.961-5.457-10.837-5.5-10.837s-2.523,4.877-5.5,10.837l-5.419,10.837,1.567,0,1.567,0Z" fill="#4cbcce"/>
    <path id="path65" d="M182.239,262.135c0-.047,1.3-2.676,2.879-5.842L188,250.537H182.07l7.239-14.478,7.239-14.478,7.219,14.436,7.219,14.436-2.858.046a25.294,25.294,0,0,0-2.858.128c0,.045,1.3,2.672,2.879,5.838l2.879,5.756H196.633c-7.917,0-14.394-.039-14.394-.086Zm22.86-6.857-2.372-4.741H190.368L188,255.278l-2.372,4.741h21.846ZM192.566,240.79c3.38-6.69,3.834-7.5,4.034-7.235.124.166,1.86,3.559,3.856,7.541l3.63,7.239h3.383L202.05,237.5c-2.981-5.961-5.457-10.837-5.5-10.837s-2.523,4.877-5.5,10.837l-5.419,10.837,1.567,0,1.567,0,3.808-7.537Z" fill="#3eb7cc"/>
    <path id="path63" d="M182.239,262.135c0-.047,1.3-2.676,2.879-5.842L188,250.537H182.07l7.239-14.478,7.239-14.478,7.219,14.436,7.219,14.436-2.941.046-2.941.046,2.877,5.752c1.582,3.164,2.877,5.791,2.877,5.838s-6.439.086-14.309.086-14.309-.039-14.309-.086Zm25.231-2.2c0-.046-1.047-2.18-2.327-4.741l-2.327-4.657H190.279l-2.327,4.657c-1.28,2.562-2.327,4.7-2.327,4.741s4.915.084,10.922.084,10.922-.038,10.922-.084Zm-14.9-19.145c3.252-6.437,3.839-7.5,4.016-7.252.115.157,1.853,3.55,3.862,7.541l3.654,7.256h3.371L202.05,237.5c-2.981-5.961-5.457-10.837-5.5-10.837s-2.523,4.877-5.5,10.837l-5.419,10.837,1.567,0,1.567,0,3.808-7.537Z" fill="#da6f6f"/>
    <path id="path61" d="M182.239,262.135c0-.047,1.3-2.676,2.879-5.842L188,250.537h-5.928l7.2-14.393c3.958-7.916,7.235-14.393,7.281-14.393s3.323,6.477,7.281,14.393l7.2,14.393H205.1l2.879,5.756c1.584,3.166,2.879,5.795,2.879,5.842s-6.439.086-14.309.086-14.309-.039-14.309-.086Zm25.231-2.2c0-.046-1.047-2.18-2.327-4.741l-2.327-4.657H190.279l-2.327,4.657c-1.28,2.562-2.327,4.7-2.327,4.741s4.915.084,10.922.084,10.922-.038,10.922-.084Zm-14.9-19.128c3.2-6.339,3.838-7.485,4.012-7.256.114.15,1.851,3.537,3.86,7.528l3.654,7.256h3.371l-5.438-10.88c-2.991-5.984-5.451-10.895-5.466-10.913s-2.484,4.878-5.485,10.88l-5.456,10.913h3.142Z" fill="#48a9bb"/>
    <path id="path59" d="M182.239,262.135c0-.047,1.3-2.676,2.879-5.842L188,250.537h-5.928l7.2-14.393c3.958-7.916,7.235-14.393,7.281-14.393s3.323,6.477,7.281,14.393l7.2,14.393H205.1l2.879,5.756c1.584,3.166,2.879,5.795,2.879,5.842s-6.439.086-14.309.086-14.309-.039-14.309-.086Zm25.231-2.2c0-.046-1.047-2.18-2.327-4.741l-2.327-4.657H190.279l-2.327,4.657c-1.28,2.562-2.327,4.7-2.327,4.741s4.915.084,10.922.084,10.922-.038,10.922-.084Zm-14.9-19.122c2.093-4.137,3.853-7.471,3.912-7.408s1.8,3.448,3.866,7.522l3.759,7.408h3.36l-5.438-10.88c-2.991-5.984-5.451-10.895-5.466-10.913s-2.484,4.878-5.485,10.88l-5.456,10.913h3.142Z" fill="#5398a8"/>
    <path id="path57" d="M182.239,262.135c0-.047,1.3-2.676,2.879-5.842L188,250.537h-5.928l7.2-14.393c3.958-7.916,7.235-14.393,7.281-14.393s3.323,6.477,7.281,14.393l7.2,14.393H205.1l2.879,5.756c1.584,3.166,2.879,5.795,2.879,5.842s-6.439.086-14.309.086-14.309-.039-14.309-.086Zm25.231-2.2c0-.046-1.047-2.18-2.327-4.741l-2.327-4.657H190.279l-2.327,4.657c-1.28,2.562-2.327,4.7-2.327,4.741s4.915.084,10.922.084,10.922-.038,10.922-.084Zm-14.876-19.15,3.827-7.55,3.806,7.508,3.806,7.508,1.722.048,1.722.048-5.441-10.886c-2.992-5.987-5.453-10.9-5.469-10.919s-2.484,4.878-5.485,10.88l-5.456,10.913h3.141Z" fill="#5f8999"/>
    <path id="path55" d="M182.239,262.135c0-.047,1.3-2.676,2.879-5.842L188,250.537h-5.928l7.2-14.393c3.958-7.916,7.235-14.393,7.281-14.393s3.323,6.477,7.281,14.393l7.2,14.393H205.1l2.879,5.756c1.584,3.166,2.879,5.795,2.879,5.842s-6.439.086-14.309.086-14.309-.039-14.309-.086Zm25.231-2.2c0-.046-1.047-2.18-2.327-4.741l-2.327-4.657H190.279l-2.327,4.657c-1.28,2.562-2.327,4.7-2.327,4.741s4.915.084,10.922.084,10.922-.038,10.922-.084ZM192.6,240.78l3.829-7.555,3.773,7.487c2.075,4.118,3.861,7.52,3.969,7.562a11.3,11.3,0,0,0,1.729.026l1.533-.049-5.441-10.88-5.441-10.88-5.46,10.922-5.46,10.922h3.141Z" fill="#fd4040"/>
    <path id="path53" d="M182.239,262.135c0-.047,1.3-2.676,2.879-5.842L188,250.537h-2.879a16.317,16.317,0,0,1-2.87-.127c.005-.07,3.233-6.564,7.174-14.431l7.164-14.3,7.222,14.431,7.222,14.431H205.1l2.879,5.756c1.584,3.166,2.879,5.795,2.879,5.842s-6.439.086-14.309.086-14.309-.039-14.309-.086Zm25.231-2.2c0-.046-1.047-2.18-2.327-4.741l-2.327-4.657H190.279l-2.327,4.657c-1.28,2.562-2.327,4.7-2.327,4.741s4.915.084,10.922.084,10.922-.038,10.922-.084ZM192.6,240.78l3.829-7.555,3.773,7.487c2.075,4.118,3.861,7.52,3.969,7.562a11.3,11.3,0,0,0,1.729.026l1.533-.049-5.441-10.88-5.441-10.88-5.46,10.922-5.46,10.922h3.141Z" fill="#13a8c0"/>
    <path id="path51" d="M182.248,250.394c.005-.062,3.233-6.549,7.174-14.417l7.164-14.3L203.8,236.09l7.215,14.417H196.627c-7.914,0-14.384-.051-14.379-.113Zm10.348-9.615,3.829-7.555,3.773,7.487c2.075,4.118,3.861,7.52,3.969,7.562a11.3,11.3,0,0,0,1.729.026l1.533-.049-5.441-10.88-5.441-10.88-5.46,10.922-5.46,10.922h3.141Z" fill="#687d8c"/>
    <path id="path49" d="M182.248,250.394c.005-.062,3.233-6.549,7.174-14.417l7.164-14.3L203.8,236.09l7.215,14.417H196.627c-7.914,0-14.384-.051-14.379-.113ZM192.6,240.77l3.834-7.564,3.781,7.564L204,248.334h3.474l-5.438-10.88c-2.991-5.984-5.451-10.895-5.466-10.913s-2.484,4.878-5.485,10.88l-5.456,10.913h3.141Z" fill="#d14848"/>
    <path id="path47" d="M182.248,250.394c.005-.062,3.233-6.549,7.174-14.417l7.164-14.3L203.8,236.09l7.215,14.417H196.627c-7.914,0-14.384-.051-14.379-.113Zm10.318-9.51c2.052-4.1,3.788-7.451,3.858-7.451s1.8,3.353,3.849,7.451l3.722,7.451h3.475l-5.438-10.88c-2.991-5.984-5.451-10.895-5.466-10.913s-2.484,4.878-5.485,10.88l-5.456,10.913h3.209Z" fill="#fd3030"/>
    <path id="path45" d="M182.239,250.437c0-.038,3.219-6.509,7.154-14.379l7.154-14.309,7.145,14.267c3.93,7.847,7.15,14.317,7.155,14.379s-6.43.112-14.3.112-14.309-.031-14.309-.07Zm10.327-9.553c2.052-4.1,3.788-7.451,3.858-7.451s1.8,3.353,3.849,7.451L204,248.335h1.737a8.977,8.977,0,0,0,1.737-.085c0-.165-10.839-21.759-10.922-21.759s-10.922,21.594-10.922,21.759a7.67,7.67,0,0,0,1.6.085h1.6Z" fill="#5e5e6b"/>
    <path id="path43" d="M182.239,250.437c0-.038,3.219-6.509,7.154-14.379l7.154-14.309,7.145,14.267c3.93,7.847,7.15,14.317,7.155,14.379s-6.43.112-14.3.112-14.309-.031-14.309-.07Zm10.345-9.587c3.376-6.742,3.772-7.454,3.979-7.17.127.173,1.852,3.541,3.833,7.483l3.6,7.167,1.736,0a8.984,8.984,0,0,0,1.736-.083c0-.165-10.839-21.759-10.922-21.759s-10.922,21.594-10.922,21.759a7.67,7.67,0,0,0,1.6.085h1.6Z" fill="#6c5562"/>
    <path id="path41" d="M182.239,250.437c0-.038,3.219-6.509,7.154-14.379l7.154-14.309,7.145,14.267c3.93,7.847,7.15,14.317,7.155,14.379s-6.43.112-14.3.112-14.309-.031-14.309-.07Zm10.331-9.56c2.054-4.1,3.79-7.423,3.856-7.381s1.8,3.4,3.847,7.453L204,248.326l1.736,0a8.982,8.982,0,0,0,1.736-.081c0-.165-10.839-21.759-10.922-21.759s-10.922,21.594-10.922,21.759a7.67,7.67,0,0,0,1.6.085h1.6Z" fill="#b4333b"/>
    <path id="path39" d="M182.239,250.437c0-.038,3.219-6.508,7.154-14.378l7.154-14.309,7.145,14.267c3.93,7.847,7.15,14.316,7.155,14.377s-6.43.111-14.3.112-14.309-.029-14.309-.068Zm22.439-1.08a7.455,7.455,0,0,1-.426-.931,7.283,7.283,0,0,1,1.609-.09,7.708,7.708,0,0,0,1.609-.085c0-.165-10.839-21.759-10.922-21.759s-10.922,21.594-10.922,21.759a7.67,7.67,0,0,0,1.6.085h1.6l3.742-7.472c2.1-4.2,3.806-7.407,3.887-7.324s2.023,3.863,4.319,8.4,4.207,8.255,4.247,8.255A2.994,2.994,0,0,0,204.678,249.357Z" fill="#6f4d59"/>
    <path id="path37" d="M182.239,250.445c0-.043,3.219-6.517,7.154-14.387l7.154-14.309,7.145,14.267c3.93,7.847,7.15,14.324,7.155,14.394a15.341,15.341,0,0,1-2.782.127h-2.792l-.51-1.011a10.343,10.343,0,0,1-.51-1.1,7.352,7.352,0,0,1,1.609-.089,7.708,7.708,0,0,0,1.609-.085c0-.165-10.839-21.759-10.922-21.759s-10.922,21.594-10.922,21.759a7.67,7.67,0,0,0,1.6.085h1.6l3.742-7.472c2.058-4.109,3.8-7.405,3.881-7.324.339.363,8.5,16.689,8.392,16.794-.128.128-22.611.239-22.611.111Z" fill="#c72627"/>
    <path id="path35" d="M182.239,250.444c0-.042,3.219-6.516,7.154-14.386l7.154-14.309,7.145,14.267c3.93,7.847,7.15,14.324,7.155,14.394a15.341,15.341,0,0,1-2.782.127h-2.792l-.51-1.011a10.343,10.343,0,0,1-.51-1.1,7.352,7.352,0,0,1,1.609-.089,7.708,7.708,0,0,0,1.609-.085c0-.165-10.839-21.759-10.922-21.759s-10.922,21.594-10.922,21.759a7.622,7.622,0,0,0,1.6.085h1.6l3.76-7.459c2.068-4.1,3.816-7.4,3.886-7.324.332.358,8.482,16.68,8.38,16.782-.127.127-22.611.236-22.611.11Z" fill="#7f3f48"/>
    <path id="path33" d="M182.239,250.444c0-.042,3.219-6.516,7.154-14.386l7.154-14.309,7.145,14.267c3.93,7.847,7.15,14.324,7.155,14.394a15.341,15.341,0,0,1-2.782.127h-2.792l-.51-1.011a10.343,10.343,0,0,1-.51-1.1,7.352,7.352,0,0,1,1.609-.089,7.708,7.708,0,0,0,1.609-.085c0-.165-10.839-21.759-10.922-21.759s-10.922,21.594-10.922,21.759a7.7,7.7,0,0,0,1.608.085h1.608l3.031-6.054c1.667-3.33,3.373-6.69,3.791-7.468l.759-1.415,4.27,8.411c2.348,4.626,4.218,8.463,4.154,8.527-.126.126-22.609.233-22.609.108Z" fill="#fd0000"/>
    <path id="path31" d="M187.827,250.312c0-.08,8.45-16.75,8.533-16.832s8.57,16.576,8.57,16.781c0,.058-3.848.106-8.551.106s-8.551-.025-8.551-.055Z" fill="#8f2d34"/>
    <path id="path29" d="M187.827,250.312c0-.079,8.45-16.749,8.531-16.83.06-.06,8.572,16.635,8.572,16.813,0,.039-3.848.071-8.551.071S187.827,250.342,187.827,250.312Z" fill="#c41515"/>
    <path id="path27" d="M187.827,250.3c0-.038,1.744-3.486,3.875-7.662s4.058-7.959,4.282-8.405l.408-.812,4.269,8.387c2.348,4.613,4.269,8.426,4.269,8.474s-3.848.087-8.551.087-8.551-.031-8.551-.068Z" fill="#9f1f23"/>
    <path id="path25" d="M187.827,250.3c0-.038,1.744-3.486,3.875-7.662s4.061-7.965,4.289-8.419l.414-.825,4.27,8.487,4.27,8.487h-8.56c-4.708,0-8.56-.031-8.56-.068Z" fill="#c30505"/>
    <path id="path23" d="M192.084,241.942c2.345-4.633,4.275-8.441,4.289-8.462s1.95,3.77,4.3,8.424l4.279,8.462H187.82Z" fill="#be0000"/>
  </g>
</svg>
