<?xml version="1.0" encoding="UTF-8"?>
<!DOCTYPE svg PUBLIC "-//W3C//DTD SVG 1.1//EN" "http://www.w3.org/Graphics/SVG/1.1/DTD/svg11.dtd">
<!-- Creator: CorelDRAW 2018 (64-Bit) -->
<svg xmlns="http://www.w3.org/2000/svg" xml:space="preserve" width="2.17333in" height="2.17333in" version="1.1" style="shape-rendering:geometricPrecision; text-rendering:geometricPrecision; image-rendering:optimizeQuality; fill-rule:evenodd; clip-rule:evenodd"
viewBox="0 0 2221.02 2221.02"
 xmlns:xlink="http://www.w3.org/1999/xlink">
 <defs>
  <style type="text/css">
   <![CDATA[
    .fil0 {fill:none}
    .fil1 {fill:#12A9C1}
    .fil2 {fill:#ED1F24}
   ]]>
  </style>
 </defs>
 <g id="Layer_x0020_1">
  <metadata id="CorelCorpID_0Corel-Layer"/>
  <rect class="fil0" x="0" y="-0" width="2221.02" height="2221.02"/>
  <g id="_2077984017920">
   <path class="fil1" d="M1819.49 1124.31l0 -90.92 0 -951.41 -954.57 1384.8c113.91,-37.96 219.52,-41.72 319.91,-41.92l74.98 -108.77 0 -0.01 319.59 -463.62 0 302.2 0 207.98c80.07,-43.02 159.41,-115.59 240.09,-238.33z"/>
   <path class="fil2" d="M401.53 2139.04l1417.97 0 0 -800.4c-80.02,92.78 -159.37,141.95 -240.09,168.09l0 368.96 -705.33 0 229.12 -332.39c-125.5,13.99 -260.43,54.72 -409.86,172.42l-291.8 423.32z"/>
  </g>
 </g>
</svg>
