<svg xmlns="http://www.w3.org/2000/svg" width="173.082" height="248.219" viewBox="0 0 173.082 248.219">
  <g id="SyncwareLogo" transform="translate(-17.033 -26.333)">
    <path id="path3738" d="M52.226,250.226c-7.724-13.379-13.951-24.419-13.837-24.533s13.52-7.891,29.791-17.282l29.583-17.075.117,7.675L98,206.685l-1.266,1.065c-3.106,2.614-4.143,8.4-2.217,12.383a10.435,10.435,0,0,0,9.695,5.98c9.7.079,14.609-11.552,7.7-18.262l-1.462-1.42,0-11.21,0-11.21,25.847-14.925c14.216-8.209,25.995-14.768,26.175-14.577,1.154,1.225,27.951,48.4,27.648,48.67-.45.4-123.419,71.371-123.669,71.371-.1,0-6.494-10.946-14.218-24.325Zm48.157-27.363a8.044,8.044,0,0,1-4.467-6.711,7.378,7.378,0,0,1,2.985-7.03l1.656-1.33V83.875l-1.11-.594a7.706,7.706,0,0,1-2.21-2.471,8.389,8.389,0,0,1,2.582-11.132,8.785,8.785,0,0,1,8.648-.471,8.243,8.243,0,0,1,4.46,6.519c.267,3.22-.482,5.145-2.736,7.029l-1.9,1.586V208.18l1.295.765c1.818,1.074,3.126,3.843,3.126,6.616,0,6.2-7.007,10.348-12.331,7.3ZM41.449,185.358c-7.738-13.363-14-24.354-13.9-24.424.539-.417,70.013-40.244,70.2-40.244.127,0,.231,14.569.231,32.377v32.376L76.93,197.549c-11.576,6.658-21.13,12.106-21.23,12.106s-6.513-10.933-14.252-24.3Zm69.008-39.609.015-32.58,20.459-11.738c11.253-6.456,20.609-11.581,20.792-11.389.467.489,27.915,47.942,27.9,48.24-.005.134-14.752,8.709-32.771,19.055s-33.583,19.3-34.588,19.9l-1.827,1.09ZM30.744,122.165c-7.734-13.4-13.9-24.5-13.706-24.666,1.42-1.232,123.683-71.334,123.938-71.062.659.7,27.619,47.639,27.66,48.156.023.294-13.013,8.076-28.968,17.292l-29.01,16.758L110.542,97.2l-.115-11.442,1.692-1.449c4.411-3.776,4.271-11.662-.279-15.657a9.93,9.93,0,0,0-7.2-2.663,10.386,10.386,0,0,0-9.933,6.351,10.692,10.692,0,0,0,2.141,11.873l1.142,1.129-.113,15.368-.113,15.368-26,15.031c-14.3,8.267-26.216,15.117-26.478,15.223s-6.69-10.571-14.539-24.165Z" fill="#a6e3e1"/>
    <path id="path3736" d="M52.226,250.226c-7.724-13.379-13.951-24.419-13.837-24.533s13.52-7.891,29.791-17.282l29.583-17.075.117,7.675L98,206.685l-1.266,1.065c-3.106,2.614-4.143,8.4-2.217,12.383a10.435,10.435,0,0,0,9.695,5.98c9.7.079,14.609-11.552,7.7-18.262l-1.462-1.42,0-11.21,0-11.21,25.847-14.925c14.216-8.209,25.995-14.768,26.175-14.577,1.154,1.225,27.951,48.4,27.648,48.67-.45.4-123.419,71.371-123.669,71.371-.1,0-6.494-10.946-14.218-24.325Zm48.546-27.2a7.923,7.923,0,0,1-4.277-4.445c-1.409-3.371-.271-7.629,2.521-9.438l1.531-.992,0-62.1,0-62.1-1.549-1.236a7.2,7.2,0,0,1-2.749-6.029A7.359,7.359,0,0,1,98.327,71.1a8.411,8.411,0,0,1,14.027,2.41,8.079,8.079,0,0,1-2.729,9.662l-1.731,1.2-.016,61.709-.016,61.709,1.765,1.418a8.229,8.229,0,0,1,.894,11.781,8.568,8.568,0,0,1-9.75,2.035ZM41.615,185.479c-10.453-18.01-13.9-24.3-13.538-24.652.5-.487,69.37-40.137,69.713-40.137.1,0,.188,14.553.188,32.341v32.341l-20.9,12.034c-11.5,6.619-21.022,12.082-21.166,12.141s-6.576-10.772-14.293-24.068Zm68.932-39.917.11-32.383,20.388-11.734c14.932-8.594,20.477-11.586,20.72-11.179.183.305,6.512,11.192,14.065,24.193,10.34,17.8,13.609,23.757,13.233,24.12-.534.515-66.9,38.7-67.981,39.119-.569.219-.631-3.509-.534-32.136Zm-79.713-23.5c-12.282-21.266-13.967-24.4-13.32-24.751.518-.283,120.524-69.517,123.033-70.981.129-.075,6.555,10.813,14.279,24.2l14.044,24.334-1.6.912c-.88.5-13.728,7.915-28.551,16.473S111.47,107.924,111.1,108.064c-.587.225-.663-1.021-.662-10.858V86.093l1.634-1.538a10.485,10.485,0,0,0,2.56-12.07,10.9,10.9,0,0,0-20.953,4.129c0,3.03,1.385,6.454,3.165,7.855l1.128.888v30.424L73.825,129.732C60.54,137.406,48.6,144.3,47.283,145.047l-2.389,1.363-14.06-24.346Z" fill="#e99999"/>
    <path id="path3734" d="M64.927,271.908c-.717-1.264-7-12.162-13.967-24.217C40.045,228.8,38.4,225.719,39.02,225.381c.4-.216,13.743-7.9,29.656-17.085S97.692,191.6,97.794,191.6a73.092,73.092,0,0,1,.185,7.321v7.321l-1.424,1.424a9.7,9.7,0,0,0-3.089,7.788,10.2,10.2,0,0,0,.832,4.686,11.132,11.132,0,0,0,19.352,1.14c2.723-4.314,1.88-10.711-1.814-13.756l-1.409-1.161.115-11.141.115-11.141,24.712-14.268c13.592-7.847,25.2-14.549,25.787-14.892l1.074-.624,13.753,23.846c7.564,13.116,13.753,24.133,13.753,24.484,0,.4-23.207,14.046-61.029,35.9C95.142,257.922,67.353,273.883,66.955,274c-.525.152-1.083-.424-2.028-2.09Zm35.6-49.253a6.742,6.742,0,0,1-3.392-3.116c-1.975-3.607-1.048-8.5,1.981-10.463l1.431-.926,0-62.13,0-62.13-1.329-.983c-2.718-2.01-3.686-6.368-2.161-9.726,2.034-4.479,7-6.01,11.707-3.609,5.193,2.649,5.527,10.678.572,13.74l-1.483.916V207.892l1.571,1.2c5.167,3.941,3.5,12.558-2.766,14.3-2.464.684-3.614.547-6.141-.733ZM41.615,185.479c-10.453-18.01-13.9-24.3-13.538-24.652.5-.487,69.37-40.137,69.713-40.137.1,0,.188,14.553.188,32.341v32.341l-20.9,12.034c-11.5,6.619-21.022,12.082-21.166,12.141s-6.576-10.772-14.293-24.068Zm68.932-39.917.11-32.383,20.388-11.734c14.932-8.594,20.477-11.586,20.72-11.179.183.305,6.512,11.192,14.065,24.193,10.34,17.8,13.609,23.757,13.233,24.12-.534.515-66.9,38.7-67.981,39.119-.569.219-.631-3.509-.534-32.136Zm-79.713-23.5c-12.282-21.266-13.967-24.4-13.32-24.751.518-.283,120.524-69.517,123.033-70.981.129-.075,6.555,10.813,14.279,24.2l14.044,24.334-1.6.912c-.88.5-13.728,7.915-28.551,16.473S111.47,107.924,111.1,108.064c-.587.225-.663-1.021-.662-10.858V86.093l1.634-1.538a10.485,10.485,0,0,0,2.56-12.07,10.9,10.9,0,0,0-20.953,4.129c0,3.03,1.385,6.454,3.165,7.855l1.128.888v30.424L73.825,129.732C60.54,137.406,48.6,144.3,47.283,145.047l-2.389,1.363-14.06-24.346Z" fill="#5cccd7"/>
    <path id="path3732" d="M64.927,271.908c-.717-1.264-7-12.162-13.967-24.217C40.045,228.8,38.4,225.719,39.02,225.381c.4-.216,13.743-7.9,29.656-17.085S97.692,191.6,97.794,191.6a73.092,73.092,0,0,1,.185,7.321v7.321l-1.424,1.424a9.7,9.7,0,0,0-3.089,7.788,10.2,10.2,0,0,0,.832,4.686,11.132,11.132,0,0,0,19.352,1.14c2.723-4.314,1.88-10.711-1.814-13.756l-1.409-1.161.115-11.141.115-11.141,24.712-14.268c13.592-7.847,25.2-14.549,25.787-14.892l1.074-.624,13.753,23.846c7.564,13.116,13.753,24.133,13.753,24.484,0,.4-23.207,14.046-61.029,35.9C95.142,257.922,67.353,273.883,66.955,274c-.525.152-1.083-.424-2.028-2.09Zm35.6-49.253a6.742,6.742,0,0,1-3.392-3.116c-1.975-3.607-1.048-8.5,1.981-10.463l1.431-.926,0-62.13,0-62.13-1.329-.983c-2.718-2.01-3.686-6.368-2.161-9.726,2.034-4.479,7-6.01,11.707-3.609,5.193,2.649,5.527,10.678.572,13.74l-1.483.916V207.892l1.571,1.2c5.167,3.941,3.5,12.558-2.766,14.3-2.464.684-3.614.547-6.141-.733ZM54.405,207.4c-.584-1.005-6.857-11.831-13.941-24.057l-12.88-22.23,10.807-6.219L73.481,134.7,97.763,120.73l.11,32.089c.087,25.321,0,32.194-.43,32.587-.8.734-41.08,23.821-41.564,23.821-.227,0-.891-.822-1.474-1.827Zm56.141-61.81.11-32.263,20.415-11.754c17.577-10.12,20.47-11.654,20.815-11.038.22.394,6.536,11.3,14.035,24.246s13.508,23.6,13.352,23.7c-4.718,2.78-68.523,39.374-68.652,39.374-.1,0-.136-14.518-.076-32.263Zm-79.6-23.648c-11.029-19.113-13.784-24.186-13.3-24.493C19.425,96.315,139.623,26.99,140.135,26.8c.432-.159,4.6,6.706,14.5,23.877,7.642,13.255,13.831,24.158,13.753,24.229S155.338,82.489,139.56,91.6l-28.688,16.557V85.823l1.351-1.137c3.338-2.809,4.371-8.678,2.269-12.9a10.6,10.6,0,0,0-9.852-6.1A10.874,10.874,0,0,0,93.534,76.423a9.961,9.961,0,0,0,2.788,7.539l1.668,1.809-.113,14.971-.113,14.971L71.547,130.87c-14.419,8.336-26.323,15.161-26.452,15.167s-6.5-10.837-14.146-24.1Z" fill="#31bfcc"/>
    <path id="path3730" d="M64.927,271.908c-.717-1.264-7-12.162-13.967-24.217C40.045,228.8,38.4,225.719,39.02,225.381c.4-.216,13.743-7.9,29.656-17.085S97.692,191.6,97.794,191.6a73.092,73.092,0,0,1,.185,7.321v7.321l-1.424,1.424a9.7,9.7,0,0,0-3.089,7.788,10.2,10.2,0,0,0,.832,4.686,11.132,11.132,0,0,0,19.352,1.14c2.723-4.314,1.88-10.711-1.814-13.756l-1.409-1.161.115-11.141.115-11.141,24.712-14.268c13.592-7.847,25.2-14.549,25.787-14.892l1.074-.624,13.753,23.846c7.564,13.116,13.753,24.133,13.753,24.484,0,.4-23.207,14.046-61.029,35.9C95.142,257.922,67.353,273.883,66.955,274c-.525.152-1.083-.424-2.028-2.09Zm35.6-49.253a6.742,6.742,0,0,1-3.392-3.116c-1.975-3.607-1.048-8.5,1.981-10.463l1.431-.926,0-62.13,0-62.13-1.329-.983c-2.718-2.01-3.686-6.368-2.161-9.726,2.034-4.479,7-6.01,11.707-3.609,5.193,2.649,5.527,10.678.572,13.74l-1.483.916V207.892l1.571,1.2c5.167,3.941,3.5,12.558-2.766,14.3-2.464.684-3.614.547-6.141-.733ZM54.405,207.4c-.584-1.005-6.857-11.831-13.941-24.057l-12.88-22.23,10.807-6.219L73.481,134.7,97.763,120.73l.11,32.089c.087,25.321,0,32.194-.43,32.587-.8.734-41.08,23.821-41.564,23.821-.227,0-.891-.822-1.474-1.827Zm56.141-61.81.11-32.263,20.415-11.754c17.577-10.12,20.47-11.654,20.815-11.038.22.394,6.536,11.3,14.035,24.246s13.508,23.6,13.352,23.7c-4.718,2.78-68.523,39.374-68.652,39.374-.1,0-.136-14.518-.076-32.263Z" fill="#04bb57"/>
    <path id="path3728" d="M64.927,271.908c-.717-1.264-7-12.162-13.967-24.217C40.045,228.8,38.4,225.719,39.02,225.381c.4-.216,13.743-7.9,29.656-17.085S97.692,191.6,97.794,191.6a73.092,73.092,0,0,1,.185,7.321v7.321l-1.424,1.424a9.7,9.7,0,0,0-3.089,7.788,10.2,10.2,0,0,0,.832,4.686,11.132,11.132,0,0,0,19.352,1.14c2.723-4.314,1.88-10.711-1.814-13.756l-1.409-1.161.115-11.141.115-11.141,24.712-14.268c13.592-7.847,25.2-14.549,25.787-14.892l1.074-.624,13.753,23.846c7.564,13.116,13.753,24.133,13.753,24.484,0,.4-23.207,14.046-61.029,35.9C95.142,257.922,67.353,273.883,66.955,274c-.525.152-1.083-.424-2.028-2.09Zm35.6-49.253a6.742,6.742,0,0,1-3.392-3.116c-1.975-3.607-1.048-8.5,1.981-10.463l1.431-.926,0-62.13,0-62.13-1.329-.983c-2.718-2.01-3.686-6.368-2.161-9.726,2.034-4.479,7-6.01,11.707-3.609,5.193,2.649,5.527,10.678.572,13.74l-1.483.916V207.892l1.571,1.2c5.167,3.941,3.5,12.558-2.766,14.3-2.464.684-3.614.547-6.141-.733Z" fill="#595959"/>
    <path id="path3726" d="M64.927,271.908c-.717-1.264-7-12.162-13.967-24.217C40.045,228.8,38.4,225.719,39.02,225.381c.4-.216,13.743-7.9,29.656-17.085S97.692,191.6,97.794,191.6a73.092,73.092,0,0,1,.185,7.321v7.321l-1.424,1.424a9.7,9.7,0,0,0-3.089,7.788,10.2,10.2,0,0,0,.832,4.686,11.132,11.132,0,0,0,19.352,1.14c2.723-4.314,1.88-10.711-1.814-13.756l-1.409-1.161.115-11.141.115-11.141,24.712-14.268c13.592-7.847,25.2-14.549,25.787-14.892l1.074-.624,13.753,23.846c7.564,13.116,13.753,24.133,13.753,24.484,0,.4-23.207,14.046-61.029,35.9C95.142,257.922,67.353,273.883,66.955,274c-.525.152-1.083-.424-2.028-2.09Z" fill="#cc0404"/>
  </g>
</svg>
