<svg xmlns="http://www.w3.org/2000/svg" viewBox="0 0 158.62 154.97"><defs><style>.cls-1{fill:#ed1f24;stroke:#ed1f24;}.cls-1,.cls-2,.cls-3{stroke-miterlimit:10;}.cls-2{fill:#12a9c1;stroke:#12a9c1;}.cls-3{fill:#991b1f;stroke:#991b1f;}</style></defs><g id="Layer_2" data-name="Layer 2"><g id="Layer_1-2" data-name="Layer 1"><path class="cls-1" d="M32.5.5h77.95a0,0,0,0,1,0,0V110.45a0,0,0,0,1,0,0H.5a0,0,0,0,1,0,0V32.5A32,32,0,0,1,32.5.5Z"/><path class="cls-2" d="M80.17,44.53h77.95a0,0,0,0,1,0,0V154.47a0,0,0,0,1,0,0H48.17a0,0,0,0,1,0,0V76.53A32,32,0,0,1,80.17,44.53Z"/><path class="cls-3" d="M80.18,44.53h30.2a0,0,0,0,1,0,0v65.92a0,0,0,0,1,0,0H48.18a0,0,0,0,1,0,0V76.53A32,32,0,0,1,80.18,44.53Z"/></g></g></svg>